<?xml version="1.0" encoding="utf-8"?>
<!-- Generator: Adobe Illustrator 16.0.4, SVG Export Plug-In . SVG Version: 6.00 Build 0)  -->
<!DOCTYPE svg PUBLIC "-//W3C//DTD SVG 1.1//EN" "http://www.w3.org/Graphics/SVG/1.1/DTD/svg11.dtd">
<svg version="1.1" id="Layer_1" xmlns="http://www.w3.org/2000/svg" xmlns:xlink="http://www.w3.org/1999/xlink" x="0px" y="0px"
	 width="1920px" height="495px" viewBox="0 0 1920 495" enable-background="new 0 0 1920 495" xml:space="preserve">
<g>
	<rect y="0.001" fill="#F5F5F6" width="1920" height="495"/>
	<g>
		<defs>
			<rect id="SVGID_30_" y="0.001" width="1920" height="495"/>
		</defs>
		<clipPath id="SVGID_2_">
			<use xlink:href="#SVGID_30_"  overflow="visible"/>
		</clipPath>
		<g opacity="0.5" clip-path="url(#SVGID_2_)">
			
				<polygon opacity="0.5" fill="#E4D9E8" stroke="#E4D9E8" stroke-width="1.6516" stroke-linecap="round" stroke-linejoin="round" stroke-miterlimit="10" points="
				1705.465,237.29 2123.588,447.89 2448.954,296.741 2030.858,86.079 			"/>
			<g>
				<defs>
					<polygon id="SVGID_32_" points="-362.434,413.751 222.062,708.165 675.549,497.499 675.549,496.181 92.42,202.388 					"/>
				</defs>
				<clipPath id="SVGID_3_">
					<use xlink:href="#SVGID_32_"  overflow="visible"/>
				</clipPath>
				
					<path clip-path="url(#SVGID_3_)" fill="none" stroke="#E4D9E8" stroke-width="1.6979" stroke-linecap="round" stroke-linejoin="round" stroke-miterlimit="10" d="
					M-507.299,220.44H742.65 M-507.299,242.81H742.65 M-507.299,265.169H742.65 M-507.299,287.532H742.65 M-507.299,309.901H742.65
					 M-507.299,332.265H742.65 M-507.299,354.63H742.65 M-507.299,376.987H742.65 M-507.299,399.368H742.65 M-507.299,421.726
					H742.65 M-507.299,444.085H742.65 M-507.299,466.454H742.65 M-507.299,488.821H742.65 M-507.299,511.181H742.65
					 M-507.299,533.55H742.65 M-507.299,555.919H742.65 M-507.299,578.276H742.65 M-507.299,600.646H742.65 M-507.299,623.005
					H742.65 M-507.299,645.374H742.659 M-507.299,667.743H742.65 M-507.299,690.101H742.65 M783.214,421.626L-348.36,952.562
					 M773.714,401.38L-357.865,932.319 M764.223,381.136l-1131.58,530.947 M754.719,360.899l-1131.578,530.93 M745.217,340.642
					l-1131.58,530.934 M735.729,320.394L-395.867,851.333 M726.227,300.146l-1131.584,530.93 M716.732,279.913l-1131.58,530.92
					 M707.227,259.649L-424.352,790.595 M697.725,239.403L-433.85,770.343 M688.223,219.165L-443.356,750.089 M678.729,198.923
					L-452.848,729.856 M669.225,178.657L-462.354,709.599 M659.724,158.415L-471.857,689.356 M650.217,138.169L-481.361,669.108
					 M640.713,117.915L-490.862,648.851 M631.223,97.677l-1131.58,530.941 M621.721,77.435L-509.865,608.36 M612.234,57.187
					l-1131.6,530.926 M602.727,36.94L-528.867,567.88 M593.227,16.692l-1131.583,530.93 M583.73-3.552L-547.854,527.392"/>
			</g>
			<g>
				<defs>
					<polygon id="SVGID_34_" points="1441.026,-40.479 1853.879,167.478 2174.194,18.675 2174.194,17.745 1762.307,-189.774 					
						"/>
				</defs>
				<clipPath id="SVGID_5_">
					<use xlink:href="#SVGID_34_"  overflow="visible"/>
				</clipPath>
				
					<path clip-path="url(#SVGID_5_)" fill="none" stroke="#E4D9E8" stroke-width="1.6979" stroke-linecap="round" stroke-linejoin="round" stroke-miterlimit="10" d="
					M1338.699-177.022h882.891 M1338.699-161.222h882.891 M1338.699-145.429h882.891 M1338.699-129.634h882.891 M1338.699-113.833
					h882.891 M1338.699-98.036h882.891 M1338.699-82.239h882.891 M1338.699-66.446h882.891 M1338.699-50.64h882.891
					 M1338.699-34.847h882.891 M1338.699-19.054h882.891 M1338.699-3.253h882.891 M1338.699,12.546h882.891 M1338.699,28.339
					h882.891 M1338.699,44.14h882.891 M1338.699,59.938h882.891 M1338.699,75.731h882.891 M1338.699,91.532h882.891
					 M1338.699,107.325h882.891 M1338.699,123.126h882.898 M1338.699,138.925h882.891 M1338.699,154.718h882.891 M2250.243-34.917
					l-799.278,375.02 M2243.531-49.218l-799.279,375.023 M2236.828-63.517l-799.281,375.029 M2230.115-77.812l-799.279,375.018
					 M2223.405-92.12l-799.282,375.02 M2216.703-106.423L1417.41,268.603 M2209.99-120.724l-799.283,375.018 M2203.285-135.015
					l-799.283,375.01 M2196.569-149.329L1397.29,225.7 M2189.858-163.63L1390.58,211.396 M2183.146-177.925l-799.28,375.014
					 M2176.439-192.222l-799.276,375.02 M2169.727-206.536l-799.279,375.025 M2163.018-220.833L1363.734,154.19 M2156.301-235.134
					L1357.022,139.89 M2149.588-249.44l-799.277,375.021 M2142.885-263.735L1343.604,111.29 M2136.174-278.034L1336.89,96.981
					 M2129.474-292.335L1330.178,82.679 M2122.757-306.638L1323.468,68.388 M2116.047-320.938L1316.765,54.079 M2109.339-335.237
					L1310.055,39.788"/>
			</g>
			<g>
				
					<path fill="#E4D9E8" stroke="#E4D9E8" stroke-width="1.6516" stroke-linecap="round" stroke-linejoin="round" stroke-miterlimit="10" d="
					M352.182,131.298c0,10.941-20.184,19.803-45.084,19.803c-24.914,0-45.094-8.861-45.094-19.803
					c0-10.936,20.18-19.797,45.094-19.797C331.998,111.501,352.182,120.362,352.182,131.298"/>
				<path fill="#F5F5F6" d="M307.091,26.229c-24.831,0-44.964-8.805-44.964-19.68v44.438v22v44.445
					c0,10.869,20.133,19.688,44.964,19.688c24.847,0,44.97-8.818,44.97-19.688V72.987v-22V6.55
					C352.061,17.425,331.938,26.229,307.091,26.229"/>
				
					<path fill="none" stroke="#E4D9E8" stroke-width="1.7363" stroke-linecap="round" stroke-linejoin="round" stroke-miterlimit="10" d="
					M352.182,28.71c0,10.893-20.184,19.734-45.084,19.734c-24.914,0-45.094-8.842-45.094-19.734 M352.182,49.558
					c0,10.902-20.184,19.736-45.084,19.736c-24.914,0-45.094-8.834-45.094-19.736 M352.182,73.276
					c0,10.895-20.184,19.734-45.084,19.734c-24.914,0-45.094-8.84-45.094-19.734 M352.182,94.124
					c0,10.895-20.184,19.736-45.084,19.736c-24.914,0-45.094-8.842-45.094-19.736"/>
				<path fill="#E4D9E8" d="M352.182,6.55c0,10.941-20.184,19.803-45.084,19.803c-24.914,0-45.094-8.861-45.094-19.803
					c0-10.939,20.18-19.799,45.094-19.799C331.998-13.249,352.182-4.39,352.182,6.55"/>
				
					<path fill="none" stroke="#7B438B" stroke-width="1.6628" stroke-linecap="round" stroke-linejoin="round" stroke-miterlimit="10" d="
					M352.182,6.55c0,10.941-20.184,19.803-45.084,19.803c-24.914,0-45.094-8.861-45.094-19.803c0-10.939,20.18-19.799,45.094-19.799
					C331.998-13.249,352.182-4.39,352.182,6.55z"/>
				
					<path fill="#F5F5F6" stroke="#7B438B" stroke-width="1.6516" stroke-linecap="round" stroke-linejoin="round" stroke-miterlimit="10" d="
					M342.752,52.911c0,1.818-1.479,3.297-3.297,3.297c-1.82,0-3.296-1.479-3.296-3.297c0-1.822,1.476-3.297,3.296-3.297
					C341.273,49.614,342.752,51.089,342.752,52.911"/>
				
					<path fill="#F5F5F6" stroke="#7B438B" stroke-width="1.6516" stroke-linecap="round" stroke-linejoin="round" stroke-miterlimit="10" d="
					M342.752,74.808c0,1.811-1.479,3.289-3.297,3.289c-1.82,0-3.296-1.479-3.296-3.289c0-1.828,1.476-3.303,3.296-3.303
					C341.273,71.505,342.752,72.979,342.752,74.808"/>
				
					<path fill="#F5F5F6" stroke="#7B438B" stroke-width="1.6516" stroke-linecap="round" stroke-linejoin="round" stroke-miterlimit="10" d="
					M342.752,97.347c0,1.83-1.479,3.305-3.297,3.305c-1.82,0-3.296-1.475-3.296-3.305c0-1.818,1.476-3.285,3.296-3.285
					C341.273,94.062,342.752,95.528,342.752,97.347"/>
				
					<path fill="#F5F5F6" stroke="#7B438B" stroke-width="1.6516" stroke-linecap="round" stroke-linejoin="round" stroke-miterlimit="10" d="
					M342.752,119.247c0,1.818-1.479,3.297-3.297,3.297c-1.82,0-3.296-1.479-3.296-3.297c0-1.82,1.476-3.297,3.296-3.297
					C341.273,115.95,342.752,117.427,342.752,119.247"/>
				
					<path fill="#F5F5F6" stroke="#7B438B" stroke-width="1.6516" stroke-linecap="round" stroke-linejoin="round" stroke-miterlimit="10" d="
					M342.752,31.308c0,1.82-1.479,3.299-3.297,3.299c-1.82,0-3.296-1.479-3.296-3.299c0-1.818,1.476-3.295,3.296-3.295
					C341.273,28.013,342.752,29.489,342.752,31.308"/>
				
					<path fill="none" stroke="#7B438B" stroke-width="1.6628" stroke-linecap="round" stroke-linejoin="round" stroke-miterlimit="10" d="
					M307.091,26.155c-24.907,0-45.087-8.83-45.087-19.725v44.527v22.037v44.525c0,10.891,20.18,19.715,45.087,19.715
					s45.091-8.824,45.091-19.715V72.995V50.958V6.431C352.182,17.325,331.998,26.155,307.091,26.155z"/>
			</g>
			<g>
				
					<path fill="#E4D9E8" stroke="#E4D9E8" stroke-width="1.6516" stroke-linecap="round" stroke-linejoin="round" stroke-miterlimit="10" d="
					M413.105,208.411c0,12.99-20.193,23.521-45.086,23.521c-24.911,0-45.092-10.531-45.092-23.521
					c0-12.994,20.181-23.527,45.092-23.527C392.912,184.884,413.105,195.417,413.105,208.411"/>
				<path fill="#F5F5F6" d="M368.02,169.288c-24.512,0-45.092-11.205-45.092-23.52v49.512c0,12.32,20.58,22.887,45.092,22.887
					c24.496,0,45.082-11.275,45.082-23.596l0.004-48.803C413.105,158.083,392.516,169.288,368.02,169.288"/>
				
					<path fill="none" stroke="#E4D9E8" stroke-width="1.7363" stroke-linecap="round" stroke-linejoin="round" stroke-miterlimit="10" d="
					M413.105,169.798c0,12.979-20.193,23.494-45.086,23.494c-24.911,0-45.092-10.516-45.092-23.494"/>
				
					<path fill="none" stroke="#7B438B" stroke-width="1.6628" stroke-linecap="round" stroke-linejoin="round" stroke-miterlimit="10" d="
					M368.02,169.288c-24.902,0-45.092-12.104-45.092-24.734v50.727c0,12.631,20.189,22.887,45.092,22.887
					c24.893,0,45.082-10.256,45.082-22.887v-50.727C413.102,157.185,392.912,169.288,368.02,169.288z"/>
				<path fill="#E4D9E8" d="M413.105,145.769c0,12.984-20.193,23.52-45.086,23.52c-24.911,0-45.092-10.535-45.092-23.52
					c0-12.992,20.181-23.531,45.092-23.531C392.912,122.237,413.105,132.776,413.105,145.769"/>
				
					<path fill="none" stroke="#7B438B" stroke-width="1.6628" stroke-linecap="round" stroke-linejoin="round" stroke-miterlimit="10" d="
					M413.105,145.769c0,12.984-20.193,23.52-45.086,23.52c-24.911,0-45.092-10.535-45.092-23.52
					c0-12.992,20.181-23.531,45.092-23.531C392.912,122.237,413.105,132.776,413.105,145.769z"/>
				
					<path fill="#F5F5F6" stroke="#7B438B" stroke-width="1.6516" stroke-linecap="round" stroke-linejoin="round" stroke-miterlimit="10" d="
					M403.193,198.308c0,2.068-1.463,3.748-3.252,3.748c-1.799,0-3.252-1.68-3.252-3.748c0-2.062,1.453-3.736,3.252-3.736
					C401.73,194.571,403.193,196.245,403.193,198.308"/>
				
					<path fill="#F5F5F6" stroke="#7B438B" stroke-width="1.6516" stroke-linecap="round" stroke-linejoin="round" stroke-miterlimit="10" d="
					M403.193,173.833c0,2.057-1.463,3.727-3.252,3.727c-1.799,0-3.252-1.67-3.252-3.727c0-2.068,1.453-3.746,3.252-3.746
					C401.73,170.087,403.193,171.765,403.193,173.833"/>
			</g>
			<g>
				
					<polyline fill="#E4D9E8" stroke="#E4D9E8" stroke-width="1.6516" stroke-linecap="round" stroke-linejoin="round" stroke-miterlimit="10" points="
					89.73,184.931 -15.535,236.269 38.348,264.317 64.665,252.071 91.246,265.063 117.392,252.81 140.234,263.897 168.854,250.237 
									"/>
				
					<polyline fill="none" stroke="#D7C6DD" stroke-width="1.6516" stroke-linecap="round" stroke-linejoin="round" stroke-miterlimit="10" points="
					92.041,147.864 77.895,141.403 -50.732,201.249 107.727,280.144 168.034,251.56 				"/>
				<g>
					<g>
						
							<line fill="none" stroke="#D7C6DD" stroke-width="1.6516" stroke-linecap="round" stroke-linejoin="round" x1="94.689" y1="213.296" x2="91.012" y2="211.364"/>
						
							<line fill="none" stroke="#D7C6DD" stroke-width="1.6516" stroke-linecap="round" stroke-linejoin="round" stroke-dasharray="5.1139,5.1139" x1="82.89" y1="207.095" x2="21.979" y2="175.085"/>
						
							<line fill="none" stroke="#D7C6DD" stroke-width="1.6516" stroke-linecap="round" stroke-linejoin="round" x1="17.92" y1="172.948" x2="14.242" y2="171.017"/>
					</g>
				</g>
				
					<line fill="none" stroke="#D7C6DD" stroke-width="1.6516" stroke-linecap="round" stroke-linejoin="round" stroke-miterlimit="10" stroke-dasharray="4.6301" x1="91.236" y1="211.575" x2="28.598" y2="240.747"/>
				<g>
					
						<polygon fill="#F5F5F6" stroke="#7B438B" stroke-width="1.6516" stroke-linecap="round" stroke-linejoin="round" stroke-miterlimit="10" points="
						142.887,181.12 117.059,168.229 117.059,140.562 91.236,128.208 91.236,211.575 168.844,250.237 168.722,222.284 
						142.887,209.396 					"/>
					
						<polygon fill="#F5F5F6" stroke="#7B438B" stroke-width="1.6516" stroke-linecap="round" stroke-linejoin="round" stroke-miterlimit="10" points="
						272.707,173.696 168.728,222.284 168.854,250.237 272.707,201.587 					"/>
					
						<polygon fill="#F5F5F6" stroke="#7B438B" stroke-width="1.6516" stroke-linecap="round" stroke-linejoin="round" stroke-miterlimit="10" points="
						247.094,133.009 142.598,181.659 142.598,209.024 247.094,160.368 					"/>
					
						<polygon fill="#F5F5F6" stroke="#7B438B" stroke-width="1.6516" stroke-linecap="round" stroke-linejoin="round" stroke-miterlimit="10" points="
						116.898,168.308 221.395,119.657 221.395,91.913 116.898,140.562 					"/>
					
						<polygon fill="#F5F5F6" stroke="#7B438B" stroke-width="1.6534" stroke-linecap="round" stroke-linejoin="round" stroke-miterlimit="10" points="
						221.395,92.022 195.631,79.079 126.305,111.45 91.236,127.802 117,140.751 					"/>
					
						<polygon fill="#F5F5F6" stroke="#7B438B" stroke-width="1.6534" stroke-linecap="round" stroke-linejoin="round" stroke-miterlimit="10" points="
						116.898,168.196 221.291,119.47 247.084,133.116 142.66,181.403 					"/>
					
						<polygon fill="#F5F5F6" stroke="#7B438B" stroke-width="1.6534" stroke-linecap="round" stroke-linejoin="round" stroke-miterlimit="10" points="
						142.559,209.46 246.99,160.181 272.707,173.804 168.318,222.401 					"/>
				</g>
			</g>
			<g>
				
					<polygon fill="#E4D9E8" stroke="#E4D9E8" stroke-width="1.6516" stroke-linecap="round" stroke-linejoin="round" stroke-miterlimit="10" points="
					199.926,490.849 123.65,452.647 60.156,482.171 136.436,520.374 				"/>
				<polygon fill="#F5F5F6" points="135.754,509.233 195.537,481.481 195.537,423.394 135.754,451.14 				"/>
				
					<polygon fill="none" stroke="#7B438B" stroke-width="1.6531" stroke-linecap="round" stroke-linejoin="round" stroke-miterlimit="10" points="
					135.754,509.233 195.537,481.481 195.537,423.394 135.754,451.14 				"/>
				
					<line fill="none" stroke="#7B438B" stroke-width="1.6531" stroke-linecap="round" stroke-linejoin="round" stroke-miterlimit="10" x1="195.537" y1="423.394" x2="135.754" y2="451.14"/>
				<polygon fill="#E4D9E8" points="136.113,450.726 199.438,421.302 199.438,403.015 136.113,432.452 				"/>
				
					<polygon fill="none" stroke="#7B438B" stroke-width="1.6531" stroke-linecap="round" stroke-linejoin="round" stroke-miterlimit="10" points="
					136.113,450.726 199.438,421.302 199.438,403.015 136.113,432.452 				"/>
				<polygon fill="#E4D9E8" points="199.438,403.077 123.439,365.015 60.184,394.431 136.176,432.493 				"/>
				
					<polygon fill="none" stroke="#7B438B" stroke-width="1.6531" stroke-linecap="round" stroke-linejoin="round" stroke-miterlimit="10" points="
					199.438,403.077 123.439,365.015 60.184,394.431 136.176,432.493 				"/>
				<polygon fill="#F5F5F6" points="60.184,394.38 60.184,412.647 94.182,429.675 94.182,427.88 102.225,431.901 102.225,433.704 
					136.223,450.731 136.223,432.452 				"/>
				
					<polygon fill="none" stroke="#7B438B" stroke-width="1.6531" stroke-linecap="round" stroke-linejoin="round" stroke-miterlimit="10" points="
					60.184,394.38 60.184,412.647 94.182,429.675 94.182,427.88 102.225,431.901 102.225,433.704 136.223,450.731 136.223,432.452 
									"/>
				<polygon fill="#F5F5F6" points="102.217,433.604 102.217,446.36 94.182,442.339 94.182,429.597 64.072,414.53 64.072,473.315 
					135.867,509.233 135.867,450.437 				"/>
				
					<polygon fill="none" stroke="#7B438B" stroke-width="1.6531" stroke-linecap="round" stroke-linejoin="round" stroke-miterlimit="10" points="
					102.217,433.604 102.217,446.36 94.182,442.339 94.182,429.597 64.072,414.53 64.072,473.315 135.867,509.233 135.867,450.437 
									"/>
				<polygon fill="#F5F5F6" points="94.133,427.81 94.133,443.106 102.271,447.149 102.271,431.845 				"/>
				
					<polygon fill="none" stroke="#7B438B" stroke-width="1.6531" stroke-linecap="round" stroke-linejoin="round" stroke-miterlimit="10" points="
					94.133,427.81 94.133,443.106 102.271,447.149 102.271,431.845 				"/>
				
					<polygon fill="none" stroke="#7B438B" stroke-width="1.6531" stroke-linecap="round" stroke-linejoin="round" stroke-miterlimit="10" points="
					135.754,509.233 195.537,481.481 195.537,423.394 135.754,451.14 				"/>
			</g>
			<g>
				<g>
					
						<polygon fill="#E4D9E8" stroke="#E4D9E8" stroke-width="1.6516" stroke-linecap="round" stroke-linejoin="round" stroke-miterlimit="10" points="
						1699.502,423.835 1640.705,394.487 1698.277,366.366 1757.072,395.716 					"/>
					<g>
						
							<polygon fill="#E4D9E8" stroke="#7B438B" stroke-width="1.6516" stroke-linecap="round" stroke-linejoin="round" stroke-miterlimit="10" points="
							1699.502,339.507 1640.705,310.159 1698.277,282.036 1757.072,311.384 						"/>
						
							<polyline fill="#E4D9E8" stroke="#7B438B" stroke-width="1.7363" stroke-linecap="round" stroke-linejoin="round" stroke-miterlimit="10" points="
							1641.412,377.853 1699.475,406.997 1699.475,339.259 1641.412,310.228 1641.412,320.519 						"/>
						
							<polygon fill="#F5F5F6" stroke="#7B438B" stroke-width="1.7363" stroke-linecap="round" stroke-linejoin="round" stroke-miterlimit="10" points="
							1757.54,311.606 1757.54,379.351 1699.475,406.997 1699.475,339.259 						"/>
					</g>
				</g>
				<g>
					
						<polygon fill="#E4D9E8" stroke="#E4D9E8" stroke-width="1.6516" stroke-linecap="round" stroke-linejoin="round" stroke-miterlimit="10" points="
						1930.369,462.542 1871.576,433.196 1929.143,405.073 1987.939,434.421 					"/>
					<g>
						
							<polygon fill="#E4D9E8" stroke="#7B438B" stroke-width="1.6516" stroke-linecap="round" stroke-linejoin="round" stroke-miterlimit="10" points="
							1930.369,378.216 1871.576,348.868 1929.143,320.745 1987.939,350.093 						"/>
						
							<polyline fill="#E4D9E8" stroke="#7B438B" stroke-width="1.7363" stroke-linecap="round" stroke-linejoin="round" stroke-miterlimit="10" points="
							1872.283,416.56 1930.346,445.706 1930.346,377.966 1872.283,348.937 1872.283,359.228 						"/>
					</g>
				</g>
				<g>
					
						<polygon fill="#E4D9E8" stroke="#E4D9E8" stroke-width="1.6516" stroke-linecap="round" stroke-linejoin="round" stroke-miterlimit="10" points="
						1622.084,462.542 1563.287,433.196 1620.859,405.073 1679.654,434.421 					"/>
					<g>
						
							<polygon fill="#E4D9E8" stroke="#7B438B" stroke-width="1.6516" stroke-linecap="round" stroke-linejoin="round" stroke-miterlimit="10" points="
							1622.084,378.216 1563.287,348.868 1620.859,320.745 1679.654,350.093 						"/>
						
							<polygon fill="#E4D9E8" stroke="#7B438B" stroke-width="1.7363" stroke-linecap="round" stroke-linejoin="round" stroke-miterlimit="10" points="
							1622.058,445.706 1622.058,377.966 1563.996,348.937 1563.996,416.673 						"/>
						
							<polygon fill="#F5F5F6" stroke="#7B438B" stroke-width="1.7363" stroke-linecap="round" stroke-linejoin="round" stroke-miterlimit="10" points="
							1680.121,350.317 1680.121,418.058 1622.058,445.706 1622.058,377.966 						"/>
					</g>
				</g>
				<g>
					
						<polygon fill="#E4D9E8" stroke="#E4D9E8" stroke-width="1.6516" stroke-linecap="round" stroke-linejoin="round" stroke-miterlimit="10" points="
						1775.535,462.542 1716.74,433.196 1774.312,405.073 1833.107,434.421 					"/>
					<g>
						
							<polygon fill="#E4D9E8" stroke="#7B438B" stroke-width="1.6516" stroke-linecap="round" stroke-linejoin="round" stroke-miterlimit="10" points="
							1775.535,378.216 1716.74,348.868 1774.312,320.745 1833.107,350.093 						"/>
						
							<polyline fill="#E4D9E8" stroke="#7B438B" stroke-width="1.7363" stroke-linecap="round" stroke-linejoin="round" stroke-miterlimit="10" points="
							1717.447,378.583 1717.447,348.937 1775.51,377.966 1775.51,445.706 1717.447,417.173 1717.447,404.849 						"/>
						
							<polygon fill="#F5F5F6" stroke="#7B438B" stroke-width="1.7363" stroke-linecap="round" stroke-linejoin="round" stroke-miterlimit="10" points="
							1833.572,350.317 1833.572,418.058 1775.51,445.706 1775.51,377.966 						"/>
					</g>
				</g>
				<g>
					
						<polygon fill="#E4D9E8" stroke="#E4D9E8" stroke-width="1.6516" stroke-linecap="round" stroke-linejoin="round" stroke-miterlimit="10" points="
						1852.953,501.251 1794.159,471.905 1851.727,443.782 1910.523,473.132 					"/>
					<g>
						
							<polygon fill="#E4D9E8" stroke="#7B438B" stroke-width="1.6516" stroke-linecap="round" stroke-linejoin="round" stroke-miterlimit="10" points="
							1852.953,416.923 1794.159,387.577 1851.727,359.454 1910.523,388.802 						"/>
						
							<polyline fill="#E4D9E8" stroke="#7B438B" stroke-width="1.7363" stroke-linecap="round" stroke-linejoin="round" stroke-miterlimit="10" points="
							1794.865,417.292 1794.865,387.644 1852.928,416.673 1852.928,484.415 1794.865,455.878 1794.865,443.558 						"/>
						
							<polygon fill="#F5F5F6" stroke="#7B438B" stroke-width="1.7363" stroke-linecap="round" stroke-linejoin="round" stroke-miterlimit="10" points="
							1910.99,389.026 1910.99,456.765 1852.928,484.415 1852.928,416.673 						"/>
					</g>
				</g>
			</g>
			<g>
				
					<path fill="#E4D9E8" stroke="#E4D9E8" stroke-width="1.6516" stroke-linecap="round" stroke-linejoin="round" stroke-miterlimit="10" d="
					M1737.771,88.628c0,10.939-20.178,19.801-45.088,19.801c-24.896,0-45.09-8.861-45.09-19.801
					c0-10.938,20.193-19.799,45.09-19.799C1717.594,68.829,1737.771,77.69,1737.771,88.628"/>
				<path fill="#F5F5F6" d="M1692.684,28.329c-24.834,0-44.969-8.812-44.969-19.678v66.436c0,10.877,20.135,19.699,44.969,19.699
					c24.848,0,44.967-8.822,44.967-19.699V8.651C1737.65,19.517,1717.531,28.329,1692.684,28.329"/>
				
					<path fill="none" stroke="#E4D9E8" stroke-width="1.7363" stroke-linecap="round" stroke-linejoin="round" stroke-miterlimit="10" d="
					M1737.771,30.81c0,10.932-20.178,19.797-45.088,19.797c-24.896,0-45.09-8.865-45.09-19.797 M1737.771,51.722
					c0,10.932-20.178,19.791-45.088,19.791c-24.896,0-45.09-8.859-45.09-19.791"/>
				
					<path fill="none" stroke="#7B438B" stroke-width="1.6628" stroke-linecap="round" stroke-linejoin="round" stroke-miterlimit="10" d="
					M1692.684,28.263c-24.896,0-45.078-8.832-45.078-19.732v66.621c0,10.904,20.182,19.744,45.078,19.744
					c24.91,0,45.088-8.84,45.088-19.744V8.53C1737.771,19.431,1717.594,28.263,1692.684,28.263z"/>
				<path fill="#E4D9E8" d="M1737.771,8.651c0,10.939-20.178,19.797-45.088,19.797c-24.896,0-45.09-8.857-45.09-19.797
					c0-10.941,20.193-19.799,45.09-19.799C1717.594-11.147,1737.771-2.29,1737.771,8.651"/>
				
					<path fill="none" stroke="#7B438B" stroke-width="1.6628" stroke-linecap="round" stroke-linejoin="round" stroke-miterlimit="10" d="
					M1737.771,8.651c0,10.939-20.178,19.797-45.088,19.797c-24.896,0-45.09-8.857-45.09-19.797c0-10.941,20.193-19.799,45.09-19.799
					C1717.594-11.147,1737.771-2.29,1737.771,8.651z"/>
				
					<path fill="#F5F5F6" stroke="#7B438B" stroke-width="1.6516" stroke-linecap="round" stroke-linejoin="round" stroke-miterlimit="10" d="
					M1728.342,55.011c0,1.818-1.476,3.295-3.297,3.295c-1.82,0-3.295-1.477-3.295-3.295c0-1.82,1.475-3.297,3.295-3.297
					C1726.866,51.714,1728.342,53.19,1728.342,55.011"/>
				
					<path fill="#F5F5F6" stroke="#7B438B" stroke-width="1.6516" stroke-linecap="round" stroke-linejoin="round" stroke-miterlimit="10" d="
					M1728.342,76.909c0,1.809-1.476,3.285-3.297,3.285c-1.82,0-3.295-1.477-3.295-3.285c0-1.83,1.475-3.305,3.295-3.305
					C1726.866,73.604,1728.342,75.079,1728.342,76.909"/>
				
					<path fill="#F5F5F6" stroke="#7B438B" stroke-width="1.6516" stroke-linecap="round" stroke-linejoin="round" stroke-miterlimit="10" d="
					M1728.342,33.409c0,1.818-1.476,3.297-3.297,3.297c-1.82,0-3.295-1.479-3.295-3.297c0-1.82,1.475-3.297,3.295-3.297
					C1726.866,30.112,1728.342,31.589,1728.342,33.409"/>
			</g>
			<g>
				
					<path fill="#E4D9E8" stroke="#E4D9E8" stroke-width="1.6516" stroke-linecap="round" stroke-linejoin="round" stroke-miterlimit="10" d="
					M1670.964,181.53c0,12.994-20.19,23.531-45.089,23.531c-24.906,0-45.089-10.537-45.089-23.531
					c0-12.984,20.183-23.529,45.089-23.529C1650.773,158.001,1670.964,168.546,1670.964,181.53"/>
				<path fill="#F5F5F6" d="M1625.875,115.366c-24.505,0-44.861-10.121-44.861-22.436l-0.228,74.871
					c0,12.322,20.584,22.863,45.089,22.863c24.496,0,45.089-10.541,45.089-22.863V91.835c0,12.312-20.593,22.314-45.089,22.314"/>
				
					<path fill="none" stroke="#E4D9E8" stroke-width="1.7363" stroke-linecap="round" stroke-linejoin="round" stroke-miterlimit="10" d="
					M1670.964,115.864c0,12.977-20.19,23.494-45.089,23.494c-24.906,0-45.089-10.518-45.089-23.494 M1670.964,140.673
					c0,12.979-20.19,23.496-45.089,23.496c-24.906,0-45.089-10.518-45.089-23.496"/>
				
					<path fill="none" stroke="#7B438B" stroke-width="1.6628" stroke-linecap="round" stroke-linejoin="round" stroke-miterlimit="10" d="
					M1625.875,113.483c-24.906,0-45.089-10.232-45.089-22.865v77.184c0,12.623,20.183,22.863,45.089,22.863
					c24.898,0,45.089-10.24,45.089-22.863V90.618C1670.964,103.251,1650.773,113.483,1625.875,113.483z"/>
				<path fill="#E4D9E8" d="M1670.964,91.835c0,12.996-20.19,23.531-45.089,23.531c-24.906,0-45.089-10.535-45.089-23.531
					c0-12.986,20.183-23.52,45.089-23.52C1650.773,68.315,1670.964,78.849,1670.964,91.835"/>
				
					<path fill="none" stroke="#7B438B" stroke-width="1.6628" stroke-linecap="round" stroke-linejoin="round" stroke-miterlimit="10" d="
					M1670.964,91.835c0,12.996-20.19,23.531-45.089,23.531c-24.906,0-45.089-10.535-45.089-23.531
					c0-12.986,20.183-23.52,45.089-23.52C1650.773,68.315,1670.964,78.849,1670.964,91.835z"/>
				
					<path fill="#F5F5F6" stroke="#7B438B" stroke-width="1.6516" stroke-linecap="round" stroke-linejoin="round" stroke-miterlimit="10" d="
					M1661.045,144.38c0,2.061-1.453,3.742-3.25,3.742c-1.8,0-3.25-1.682-3.25-3.742c0-2.062,1.45-3.732,3.25-3.732
					C1659.592,140.647,1661.045,142.317,1661.045,144.38"/>
				
					<path fill="#F5F5F6" stroke="#7B438B" stroke-width="1.6516" stroke-linecap="round" stroke-linejoin="round" stroke-miterlimit="10" d="
					M1661.045,169.19c0,2.07-1.453,3.732-3.25,3.732c-1.8,0-3.25-1.662-3.25-3.732c0-2.061,1.45-3.73,3.25-3.73
					C1659.592,165.46,1661.045,167.13,1661.045,169.19"/>
				
					<path fill="#F5F5F6" stroke="#7B438B" stroke-width="1.6516" stroke-linecap="round" stroke-linejoin="round" stroke-miterlimit="10" d="
					M1661.045,119.907c0,2.061-1.453,3.721-3.25,3.721c-1.8,0-3.25-1.66-3.25-3.721c0-2.072,1.45-3.744,3.25-3.744
					C1659.592,116.163,1661.045,117.835,1661.045,119.907"/>
			</g>
		</g>
	</g>
</g>
<g>
	<g>
		<defs>
			<rect id="SVGID_36_" x="-2061" width="1920" height="495"/>
		</defs>
		<clipPath id="SVGID_6_">
			<use xlink:href="#SVGID_36_"  overflow="visible"/>
		</clipPath>
		<g opacity="0.5" clip-path="url(#SVGID_6_)">
			<g>
				<defs>
					<polygon id="SVGID_38_" points="-588.508,266.636 -107.756,508.793 265.24,335.519 265.24,334.436 -214.388,92.787 					"/>
				</defs>
				<clipPath id="SVGID_8_">
					<use xlink:href="#SVGID_38_"  overflow="visible"/>
				</clipPath>
				
					<path clip-path="url(#SVGID_8_)" fill="none" stroke="#E4D9E8" stroke-width="1.6979" stroke-linecap="round" stroke-linejoin="round" stroke-miterlimit="10" d="
					M-707.66,107.636H320.432 M-707.66,126.036H320.432 M-707.66,144.426H320.432 M-707.66,162.82H320.432 M-707.66,181.219H320.432
					 M-707.66,199.613H320.432 M-707.66,218.008H320.432 M-707.66,236.397H320.432 M-707.66,254.805H320.432 M-707.66,273.194
					H320.432 M-707.66,291.585H320.432 M-707.66,309.984H320.432 M-707.66,328.382H320.432 M-707.66,346.771H320.432
					 M-707.66,365.171H320.432 M-707.66,383.568H320.432 M-707.66,401.959H320.432 M-707.66,420.358H320.432 M-707.66,438.749
					H320.432 M-707.66,457.146h1028.1 M-707.66,475.545H320.432 M-707.66,493.935H320.432 M353.795,273.113l-930.729,436.698
					 M345.98,256.461l-930.73,436.7 M338.174,239.81l-930.731,436.707 M330.357,223.164l-930.73,436.693 M322.543,206.502
					l-930.732,436.696 M314.738,189.848L-616.008,626.55 M306.922,173.193l-930.736,436.694 M299.113,156.552l-930.732,436.687
					 M291.295,139.885l-930.73,436.708 M283.48,123.232l-930.729,436.702 M275.664,106.587l-930.731,436.689 M267.854,89.938
					l-930.727,436.696 M260.038,73.271l-930.731,436.702 M252.223,56.621L-678.51,493.322 M244.404,39.967l-930.731,436.701
					 M236.586,23.308l-930.727,436.698 M228.781,6.664l-930.732,436.701 M220.965-9.987l-930.735,436.69 M213.163-26.641
					l-930.748,436.689 M205.344-43.294l-930.744,436.7 M197.529-59.948l-930.735,436.692 M189.719-76.598l-930.736,436.702"/>
			</g>
			<g>
				<g>
					<g>
						<g>
							<g>
								
									<polygon fill="#E4D9E8" stroke="#7B418C" stroke-width="1.652" stroke-linecap="round" stroke-linejoin="round" stroke-miterlimit="10" points="
									-36.6,268.721 -45.83,263.868 11.849,235.461 19.968,239.808 								"/>
								
									<polyline fill="#E4D9E8" stroke="#7B418C" stroke-width="1.652" stroke-linecap="round" stroke-linejoin="round" stroke-miterlimit="10" points="
									19.968,251.412 19.968,239.808 -36.6,268.721 -36.6,280.347 								"/>
							</g>
							
								<polygon fill="#F5F5F6" stroke="#7B418C" stroke-width="1.652" stroke-linecap="round" stroke-linejoin="round" stroke-miterlimit="10" points="
								9.928,256.547 9.928,289.987 0.719,285.131 0.719,261.259 							"/>
							
								<polyline fill="#E4D9E8" stroke="#7B418C" stroke-width="1.652" stroke-linecap="round" stroke-linejoin="round" stroke-miterlimit="10" points="
								9.928,256.547 9.928,289.987 19.968,284.88 19.968,251.32 							"/>
							
								<line fill="#E4D9E8" stroke="#7B418C" stroke-width="1.652" stroke-linecap="round" stroke-linejoin="round" stroke-miterlimit="10" x1="-36.6" y1="280.347" x2="9.927" y2="256.547"/>
						</g>
					</g>
					<g>
						<g>
							
								<polygon fill="#E4D9E8" stroke="#7B418C" stroke-width="1.652" stroke-linecap="round" stroke-linejoin="round" stroke-miterlimit="10" points="
								0.004,332.58 9.234,327.728 -48.445,299.319 -56.564,303.666 							"/>
							
								<polygon fill="#E4D9E8" stroke="#7B418C" stroke-width="1.652" stroke-linecap="round" stroke-linejoin="round" stroke-miterlimit="10" points="
								0.004,332.58 0.004,377.74 9.215,372.882 9.215,327.728 							"/>
							
								<polygon fill="#F5F5F6" stroke="#7B418C" stroke-width="1.652" stroke-linecap="round" stroke-linejoin="round" stroke-miterlimit="10" points="
								-10.035,339.072 -56.564,315.271 -56.564,303.666 0.004,332.58 0.004,377.74 -10.035,372.631 							"/>
						</g>
					</g>
				</g>
			</g>
		</g>
	</g>
</g>
</svg>
