<?xml version="1.0" encoding="utf-8"?>
<!-- Generator: Adobe Illustrator 16.0.4, SVG Export Plug-In . SVG Version: 6.00 Build 0)  -->
<!DOCTYPE svg PUBLIC "-//W3C//DTD SVG 1.1//EN" "http://www.w3.org/Graphics/SVG/1.1/DTD/svg11.dtd">
<svg version="1.1" id="Layer_1" xmlns="http://www.w3.org/2000/svg" xmlns:xlink="http://www.w3.org/1999/xlink" x="0px" y="0px"
	 width="1920px" height="495px" viewBox="0 0 1920 495" enable-background="new 0 0 1920 495" xml:space="preserve">
<g opacity="0.5">
	<defs>
		<rect id="SVGID_18_" x="2106" y="-0.831" opacity="0.5" width="1920" height="495"/>
	</defs>
	<clipPath id="SVGID_2_">
		<use xlink:href="#SVGID_18_"  overflow="visible"/>
	</clipPath>
	<g clip-path="url(#SVGID_2_)">
		<g>
			<defs>
				<polygon id="SVGID_22_" points="1623.357,163.142 2104.109,405.298 2477.105,232.024 2477.105,230.94 1997.477,-10.708 				"/>
			</defs>
			<clipPath id="SVGID_3_">
				<use xlink:href="#SVGID_22_"  overflow="visible"/>
			</clipPath>
			
				<path clip-path="url(#SVGID_3_)" fill="none" stroke="#E4D9E8" stroke-width="1.6979" stroke-linecap="round" stroke-linejoin="round" stroke-miterlimit="10" d="
				M1504.205,4.142h1028.092 M1504.205,22.542h1028.092 M1504.205,40.931h1028.092 M1504.205,59.325h1028.092 M1504.205,77.724
				h1028.092 M1504.205,96.118h1028.092 M1504.205,114.513h1028.092 M1504.205,132.903h1028.092 M1504.205,151.31h1028.092
				 M1504.205,169.7h1028.092 M1504.205,188.091h1028.092 M1504.205,206.49h1028.092 M1504.205,224.888h1028.092 M1504.205,243.276
				h1028.092 M1504.205,261.677h1028.092 M1504.205,280.073h1028.092 M1504.205,298.464h1028.092 M1504.205,316.864h1028.092
				 M1504.205,335.255h1028.092 M1504.205,353.651h1028.1 M1504.205,372.05h1028.092 M1504.205,390.44h1028.092 M2565.66,169.618
				l-930.729,436.699 M2557.846,152.966l-930.73,436.701 M2550.039,136.315l-930.732,436.707 M2542.223,119.669l-930.73,436.693
				 M2534.406,103.007l-930.73,436.697 M2526.604,86.353l-930.746,436.703 M2518.787,69.698l-930.736,436.695 M2510.979,53.058
				l-930.732,436.686 M2503.16,36.391l-930.73,436.708 M2495.346,19.738L1564.617,456.44 M2487.529,3.092l-930.732,436.69
				 M2479.719-13.558L1548.992,423.14 M2471.902-30.224l-930.73,436.701 M2464.088-46.874l-930.732,436.701 M2456.27-63.527
				l-930.732,436.701 M2448.451-80.187l-930.727,436.697 M2440.646-96.831l-930.732,436.702 M2432.83-113.481l-930.736,436.689
				 M2425.027-130.136l-930.748,436.69 M2417.209-146.788l-930.744,436.699 M2409.395-163.442l-930.736,436.691 M2401.584-180.093
				L1470.848,256.61"/>
		</g>
	</g>
</g>
<g>
	<g opacity="0.5">
		<defs>
			<rect id="SVGID_24_" opacity="0.5" width="1920" height="495"/>
		</defs>
		<clipPath id="SVGID_5_">
			<use xlink:href="#SVGID_24_"  overflow="visible"/>
		</clipPath>
		<g clip-path="url(#SVGID_5_)">
			
				<polygon opacity="0.5" fill="#E4D9E8" stroke="#E4D9E8" stroke-width="1.6516" stroke-linecap="round" stroke-linejoin="round" stroke-miterlimit="10" points="
				-155.313,480.967 342.532,731.72 729.937,551.752 232.12,300.924 			"/>
			<g>
				<defs>
					<polygon id="SVGID_26_" points="1412.347,351.362 1893.099,593.52 2266.095,420.245 2266.095,419.162 1786.467,177.514 					
						"/>
				</defs>
				<clipPath id="SVGID_6_">
					<use xlink:href="#SVGID_26_"  overflow="visible"/>
				</clipPath>
				
					<path clip-path="url(#SVGID_6_)" fill="none" stroke="#E4D9E8" stroke-width="1.6979" stroke-linecap="round" stroke-linejoin="round" stroke-miterlimit="10" d="
					M1293.194,192.362h1028.091 M1293.194,210.763h1028.091 M1293.194,229.152h1028.091 M1293.194,247.547h1028.091
					 M1293.194,265.945h1028.091 M1293.194,284.34h1028.091 M1293.194,302.734h1028.091 M1293.194,321.124h1028.091
					 M1293.194,339.531h1028.091 M1293.194,357.921h1028.091 M1293.194,376.312h1028.091 M1293.194,394.711h1028.091
					 M1293.194,413.108h1028.091 M1293.194,431.498h1028.091 M1293.194,449.897h1028.091 M1293.194,468.295h1028.091
					 M1293.194,486.686h1028.091 M1293.194,505.085h1028.091 M1293.194,523.476h1028.091 M1293.194,541.873h1028.1
					 M1293.194,560.271h1028.091 M1293.194,578.661h1028.091 M2354.65,357.84l-930.729,436.698 M2346.834,341.188l-930.729,436.7
					 M2339.028,324.536l-930.731,436.707 M2331.212,307.891l-930.73,436.693 M2323.396,291.229l-930.731,436.696 M2315.593,274.574
					l-930.746,436.702 M2307.776,257.92l-930.735,436.694 M2299.967,241.278l-930.731,436.687 M2292.15,224.611l-930.731,436.708
					 M2284.334,207.959l-930.728,436.702 M2276.518,191.313l-930.73,436.689 M2268.709,174.664L1337.981,611.36 M2260.893,157.997
					l-930.731,436.702 M2253.077,141.348l-930.732,436.701 M2245.259,124.693l-930.731,436.701 M2237.44,108.034l-930.727,436.698
					 M2229.635,91.391l-930.731,436.701 M2221.82,74.739l-930.736,436.69 M2214.018,58.086L1283.27,494.775 M2206.197,41.433
					l-930.743,436.7 M2198.383,24.778l-930.734,436.692 M2190.573,8.129l-930.736,436.702"/>
			</g>
			<g>
				<defs>
					<polygon id="SVGID_28_" points="-482.644,163.973 -1.892,406.13 371.104,232.855 371.104,231.772 -108.523,-9.876 					"/>
				</defs>
				<clipPath id="SVGID_8_">
					<use xlink:href="#SVGID_28_"  overflow="visible"/>
				</clipPath>
				
					<path clip-path="url(#SVGID_8_)" fill="none" stroke="#E4D9E8" stroke-width="1.6979" stroke-linecap="round" stroke-linejoin="round" stroke-miterlimit="10" d="
					M-601.796,4.973H426.296 M-601.796,23.373H426.296 M-601.796,41.763H426.296 M-601.796,60.157H426.296 M-601.796,78.556H426.296
					 M-601.796,96.95H426.296 M-601.796,115.345H426.296 M-601.796,133.734H426.296 M-601.796,152.142H426.296 M-601.796,170.531
					H426.296 M-601.796,188.922H426.296 M-601.796,207.321H426.296 M-601.796,225.719H426.296 M-601.796,244.108H426.296
					 M-601.796,262.508H426.296 M-601.796,280.905H426.296 M-601.796,299.296H426.296 M-601.796,317.695H426.296 M-601.796,336.086
					H426.296 M-601.796,354.483h1028.1 M-601.796,372.882H426.296 M-601.796,391.271H426.296 M459.659,170.45l-930.728,436.698
					 M451.845,153.798l-930.73,436.7 M444.038,137.146l-930.731,436.707 M436.222,120.501l-930.73,436.693 M428.406,103.839
					l-930.731,436.696 M420.603,87.185l-930.746,436.702 M412.786,70.53l-930.735,436.694 M404.978,53.889l-930.732,436.687
					 M397.159,37.222l-930.73,436.708 M389.345,20.569l-930.729,436.702 M381.528,3.924l-930.731,436.689 M373.719-12.726
					l-930.728,436.696 M365.902-29.393L-564.829,407.31 M358.087-46.042l-930.732,436.701 M350.269-62.696l-930.731,436.701
					 M342.45-79.355l-930.727,436.698 M334.646-95.999l-930.732,436.701 M326.83-112.65l-930.736,436.69 M319.027-129.304
					l-930.748,436.689 M311.208-145.957l-930.744,436.7 M303.394-162.611l-930.735,436.692 M295.583-179.261l-930.736,436.702"/>
			</g>
			<g>
				
					<path fill="#E4D9E8" stroke="#E4D9E8" stroke-width="1.6516" stroke-linecap="round" stroke-linejoin="round" stroke-miterlimit="10" d="
					M1155.402,297.149c0,13.002-24.073,23.538-53.78,23.538c-29.705,0-53.779-10.536-53.779-23.538
					c0-13.021,24.074-23.556,53.779-23.556C1131.329,273.594,1155.402,284.129,1155.402,297.149"/>
				
					<path fill="#F5F5F6" stroke="#7B418C" stroke-width="1.652" stroke-linecap="round" stroke-linejoin="round" stroke-miterlimit="10" d="
					M1047.843,269.36v18.125c0,13.006,24.062,23.543,53.779,23.543c29.697,0,53.781-10.537,53.781-23.543V269.36H1047.843z"/>
				
					<path fill="#F5F5F6" stroke="#7B418C" stroke-width="1.652" stroke-linecap="round" stroke-linejoin="round" stroke-miterlimit="10" d="
					M1155.403,269.36c0,12.985-24.084,23.522-53.781,23.522c-29.695,0-53.779-10.537-53.779-23.522
					c0-13.006,24.084-23.543,53.779-23.543C1131.319,245.817,1155.403,256.354,1155.403,269.36z"/>
				
					<path fill="#F5F5F6" stroke="#7B418C" stroke-width="1.652" stroke-linecap="round" stroke-linejoin="round" stroke-miterlimit="10" d="
					M1034.937,140.442H930.11l11.492,21.67h0.021c3.686,8.445,20.575,14.84,40.911,14.84c20.535,0,37.524-6.494,41.031-15.038
					L1034.937,140.442z"/>
				
					<line fill="none" stroke="#7B418C" stroke-width="1.652" stroke-linecap="round" stroke-linejoin="round" stroke-miterlimit="10" x1="982.554" y1="158.786" x2="982.554" y2="6.833"/>
				
					<line fill="none" stroke="#7B418C" stroke-width="1.652" stroke-linecap="round" stroke-linejoin="round" stroke-miterlimit="10" x1="928.774" y1="135.244" x2="982.554" y2="6.833"/>
				
					<line fill="none" stroke="#7B418C" stroke-width="1.652" stroke-linecap="round" stroke-linejoin="round" stroke-miterlimit="10" x1="982.554" y1="6.833" x2="1036.332" y2="135.244"/>
				
					<path fill="#E4D9E8" stroke="#7B418C" stroke-width="1.652" stroke-linecap="round" stroke-linejoin="round" stroke-miterlimit="10" d="
					M1036.332,135.244c0,13.006-24.081,23.542-53.778,23.542c-29.719,0-53.779-10.536-53.779-23.542
					c0-13.007,24.061-23.543,53.779-23.543C1012.251,111.701,1036.332,122.237,1036.332,135.244z"/>
				
					<path fill="#F5F5F6" stroke="#7B418C" stroke-width="1.652" stroke-linecap="round" stroke-linejoin="round" stroke-miterlimit="10" d="
					M1265.764,253.755h-104.847l11.515,21.67h0.018c3.664,8.446,20.577,14.839,40.913,14.839c20.516,0,37.523-6.493,41.01-15.038
					L1265.764,253.755z"/>
				
					<line fill="none" stroke="#7B418C" stroke-width="1.652" stroke-linecap="round" stroke-linejoin="round" stroke-miterlimit="10" x1="1213.342" y1="272.099" x2="1213.342" y2="120.146"/>
				
					<line fill="none" stroke="#7B418C" stroke-width="1.652" stroke-linecap="round" stroke-linejoin="round" stroke-miterlimit="10" x1="1159.564" y1="248.556" x2="1213.342" y2="120.146"/>
				
					<line fill="none" stroke="#7B418C" stroke-width="1.652" stroke-linecap="round" stroke-linejoin="round" stroke-miterlimit="10" x1="1213.342" y1="120.146" x2="1267.1" y2="248.556"/>
				
					<path fill="#E4D9E8" stroke="#7B418C" stroke-width="1.652" stroke-linecap="round" stroke-linejoin="round" stroke-miterlimit="10" d="
					M1267.1,248.556c0,13.006-24.061,23.543-53.758,23.543c-29.698,0-53.777-10.537-53.777-23.543s24.079-23.542,53.777-23.542
					C1243.039,225.014,1267.1,235.55,1267.1,248.556z"/>
				<path fill="#FAAC18" d="M1091.843,262.829v-65.551l6.613-19.003c2.989-8.663,3.484-19.24,3.484-19.24V59.526h-8.145v99.509
					c0,0-0.498,10.577-3.488,19.24l-6.609,19.003v65.551c0,5.556,4.264,10.036,14.141,10.036c2.091,0,4.083-0.239,5.953-0.616
					C1096.843,270.875,1091.843,267.21,1091.843,262.829"/>
				
					<path fill="#F5F5F6" stroke="#7B418C" stroke-width="1.652" stroke-linecap="round" stroke-linejoin="round" stroke-miterlimit="10" d="
					M1112.836,178.336c-2.986-8.664-3.387-19.301-3.387-19.301h-0.038V59.526h-15.615v99.509c0,0-0.498,10.597-3.506,19.24
					l-6.574,19.003v65.551c0,5.556,8.008,10.036,17.906,10.036c9.879,0,17.908-4.48,17.908-10.036v-65.551L1112.836,178.336z"/>
				
					<path fill="none" stroke="#7B418C" stroke-width="1.652" stroke-linecap="round" stroke-linejoin="round" stroke-miterlimit="10" d="
					M1083.716,198.174c0,5.537,8.008,10.039,17.906,10.039c1.891,0,3.726-0.18,5.458-0.478"/>
				
					<path fill="#F5F5F6" stroke="#7B418C" stroke-width="1.652" stroke-linecap="round" stroke-linejoin="round" stroke-miterlimit="10" d="
					M988.231-8.304l233.754,114.148c-2.17-1.055-5.477,1.216-7.368,5.1c-1.894,3.883-1.654,7.887,0.519,8.942L981.38,5.718
					c-2.189-1.055-2.412-5.039-0.539-8.922C982.753-7.09,986.038-9.381,988.231-8.304z"/>
				
					<path fill="#E4D9E8" stroke="#7B418C" stroke-width="1.652" stroke-linecap="round" stroke-linejoin="round" stroke-miterlimit="10" d="
					M1214.617,110.944c-1.894,3.883-1.654,7.887,0.519,8.942c2.168,1.056,5.475-1.214,7.348-5.099
					c1.913-3.884,1.674-7.867-0.498-8.943C1219.815,104.79,1216.509,107.079,1214.617,110.944z"/>
				<path fill="#E4D9E8" d="M980.741,5.42c27.289,0.259,198.918,88.455,235.012,103.233c2.828-4.441,6.214-2.809,6.214-2.809
					L988.21-8.304c0,0-5.317,0.936-7.07,4.52C979.386-0.198,978.611,1.415,980.741,5.42"/>
				
					<path fill="none" stroke="#7B418C" stroke-width="1.652" stroke-linecap="round" stroke-linejoin="round" stroke-miterlimit="10" d="
					M988.231-8.304l233.754,114.148c-2.17-1.055-5.477,1.216-7.368,5.1c-1.894,3.883-1.654,7.887,0.519,8.942L981.38,5.718
					c-2.189-1.055-2.412-5.039-0.539-8.922C982.753-7.09,986.038-9.381,988.231-8.304z"/>
				
					<path fill="#F5F5F6" stroke="#7B418C" stroke-width="1.652" stroke-linecap="round" stroke-linejoin="round" stroke-miterlimit="10" d="
					M1113.534,37.727c0,6.573-5.318,11.91-11.912,11.91c-6.59,0-11.93-5.337-11.93-11.91c0-6.594,5.34-11.931,11.93-11.931
					C1108.216,25.796,1113.534,31.133,1113.534,37.727z"/>
				
					<path opacity="0.5" fill="#E4D9E8" stroke="#E4D9E8" stroke-width="1.6516" stroke-linecap="round" stroke-linejoin="round" stroke-miterlimit="10" d="
					M1249.466,321.513c0,5.792-16.17,10.485-36.127,10.485s-36.142-4.693-36.142-10.485c0-5.791,16.185-10.484,36.142-10.484
					S1249.466,315.722,1249.466,321.513z"/>
				
					<path opacity="0.5" fill="#E4D9E8" stroke="#E4D9E8" stroke-width="1.6516" stroke-linecap="round" stroke-linejoin="round" stroke-miterlimit="10" d="
					M1018.688,248.556c0,4.967-16.169,8.989-36.128,8.989c-19.956,0-36.139-4.022-36.139-8.989c0-4.965,16.183-8.988,36.139-8.988
					C1002.519,239.567,1018.688,243.591,1018.688,248.556z"/>
			</g>
			<g>
				
					<polygon fill="#E4D9E8" stroke="#E4D9E8" stroke-width="1.6516" stroke-linecap="round" stroke-linejoin="round" stroke-miterlimit="10" points="
					175.927,446.485 126.913,419.481 171.431,396.472 220.432,423.465 				"/>
				<g>
					<polygon fill="#E4D9E8" points="176.412,315 127.426,288.955 171.965,267.218 220.932,292.816 					"/>
					
						<polygon fill="none" stroke="#7B418C" stroke-width="1.652" stroke-linecap="round" stroke-linejoin="round" stroke-miterlimit="10" points="
						176.392,315.612 127.418,288.955 171.938,266.727 220.932,292.816 					"/>
					<polygon fill="#F5F5F6" points="176.392,315.612 175.927,429.626 127.911,402.96 127.911,289.442 					"/>
					
						<polygon fill="none" stroke="#7B418C" stroke-width="1.652" stroke-linecap="round" stroke-linejoin="round" stroke-miterlimit="10" points="
						176.878,315.258 175.927,429.626 127.426,403.322 127.426,288.955 					"/>
					<polygon fill="#E4D9E8" points="175.927,429.626 220.439,406.84 220.439,293.309 176.412,315.612 					"/>
					
						<polygon fill="none" stroke="#7B418C" stroke-width="1.652" stroke-linecap="round" stroke-linejoin="round" stroke-miterlimit="10" points="
						175.927,429.626 220.932,407.213 220.932,292.816 175.927,315.242 					"/>
				</g>
			</g>
			<g>
				
					<polygon fill="#E4D9E8" stroke="#E4D9E8" stroke-width="1.6516" stroke-linecap="round" stroke-linejoin="round" stroke-miterlimit="10" points="
					1393.647,430.146 1344.634,403.143 1389.15,380.133 1438.152,407.126 				"/>
				<g>
					<polygon fill="#E4D9E8" points="1394.133,337.94 1345.146,311.896 1389.686,290.158 1438.652,315.757 					"/>
					
						<polygon fill="none" stroke="#7B418C" stroke-width="1.652" stroke-linecap="round" stroke-linejoin="round" stroke-miterlimit="10" points="
						1394.112,338.553 1345.139,311.896 1389.658,289.667 1438.652,315.757 					"/>
					<polygon fill="#F5F5F6" points="1394.112,338.553 1393.647,413.287 1345.631,386.621 1345.631,312.383 					"/>
					
						<polygon fill="none" stroke="#7B418C" stroke-width="1.652" stroke-linecap="round" stroke-linejoin="round" stroke-miterlimit="10" points="
						1394.599,338.198 1393.647,413.287 1345.146,386.983 1345.146,311.896 					"/>
					<polygon fill="#E4D9E8" points="1393.647,413.287 1438.16,390.501 1438.16,316.249 1394.133,338.553 					"/>
					
						<polygon fill="none" stroke="#7B418C" stroke-width="1.652" stroke-linecap="round" stroke-linejoin="round" stroke-miterlimit="10" points="
						1393.647,413.287 1438.652,390.874 1438.652,315.757 1393.647,338.183 					"/>
				</g>
			</g>
			<g>
				
					<polygon fill="#E4D9E8" stroke="#E4D9E8" stroke-width="1.6516" stroke-linecap="round" stroke-linejoin="round" stroke-miterlimit="10" points="
					110.968,168.334 61.954,141.33 106.472,118.32 155.473,145.313 				"/>
				<g>
					<polygon fill="#F5F5F6" points="111.433,-11.055 110.968,151.475 62.952,124.809 62.952,-37.225 					"/>
					
						<polygon fill="none" stroke="#7B418C" stroke-width="1.652" stroke-linecap="round" stroke-linejoin="round" stroke-miterlimit="10" points="
						111.919,-11.409 110.968,151.475 62.467,125.171 62.467,-37.712 					"/>
					<polygon fill="#E4D9E8" points="110.968,151.475 155.48,128.688 155.48,-33.358 111.453,-11.055 					"/>
					
						<polygon fill="none" stroke="#7B418C" stroke-width="1.652" stroke-linecap="round" stroke-linejoin="round" stroke-miterlimit="10" points="
						110.968,151.475 155.973,129.062 155.973,-33.851 110.968,-11.425 					"/>
				</g>
			</g>
			<g>
				
					<line fill="none" stroke="#7B418C" stroke-width="1.652" stroke-linecap="round" stroke-linejoin="round" stroke-miterlimit="10" x1="299.476" y1="198.08" x2="243.725" y2="146.37"/>
				
					<line fill="none" stroke="#7B418C" stroke-width="1.652" stroke-linecap="round" stroke-linejoin="round" stroke-miterlimit="10" x1="346.785" y1="165.665" x2="309.602" y2="198.232"/>
				
					<line fill="none" stroke="#7B418C" stroke-width="1.652" stroke-linecap="round" stroke-linejoin="round" stroke-miterlimit="10" x1="438.475" y1="166.975" x2="358.522" y2="161.175"/>
				
					<line fill="none" stroke="#7B418C" stroke-width="1.652" stroke-linecap="round" stroke-linejoin="round" stroke-miterlimit="10" x1="491.794" y1="119.243" x2="449.169" y2="161.876"/>
				
					<line fill="none" stroke="#7B418C" stroke-width="1.652" stroke-linecap="round" stroke-linejoin="round" stroke-miterlimit="10" x1="624.754" y1="249.773" x2="501.789" y2="116.44"/>
				<g>
					
						<path fill="#F5F5F6" stroke="#7B418C" stroke-width="1.652" stroke-linecap="round" stroke-linejoin="round" stroke-miterlimit="10" d="
						M489.482,112.832c0-3.924,2.967-7.095,6.613-7.095c3.654,0,6.617,3.171,6.617,7.095s-2.963,7.113-6.617,7.113
						C492.449,119.945,489.482,116.756,489.482,112.832z"/>
				</g>
				
					<path fill="#F5F5F6" stroke="#7B418C" stroke-width="1.652" stroke-linecap="round" stroke-linejoin="round" stroke-miterlimit="10" d="
					M438.461,167.458c0-3.924,2.965-7.113,6.612-7.113c3.649,0,6.613,3.189,6.613,7.113c0,3.925-2.964,7.104-6.613,7.104
					C441.426,174.562,438.461,171.383,438.461,167.458z"/>
				
					<path fill="#F5F5F6" stroke="#7B418C" stroke-width="1.652" stroke-linecap="round" stroke-linejoin="round" stroke-miterlimit="10" d="
					M345.297,161.179c0-3.924,2.967-7.112,6.613-7.112c3.649,0,6.612,3.188,6.612,7.112c0,3.925-2.963,7.104-6.612,7.104
					C348.264,168.283,345.297,165.104,345.297,161.179z"/>
				
					<path fill="#F5F5F6" stroke="#7B418C" stroke-width="1.652" stroke-linecap="round" stroke-linejoin="round" stroke-miterlimit="10" d="
					M232.121,141.735c0-3.934,2.967-7.104,6.621-7.104c3.645,0,6.596,3.171,6.596,7.104c0,3.915-2.951,7.104-6.596,7.104
					C235.088,148.84,232.121,145.65,232.121,141.735z"/>
				
					<path fill="#F5F5F6" stroke="#7B418C" stroke-width="1.652" stroke-linecap="round" stroke-linejoin="round" stroke-miterlimit="10" d="
					M297.873,202.714c0-3.925,2.958-7.097,6.604-7.097c3.654,0,6.608,3.172,6.608,7.097c0,3.923-2.954,7.112-6.608,7.112
					C300.831,209.826,297.873,206.637,297.873,202.714z"/>
				
					<path fill="#F5F5F6" stroke="#7B418C" stroke-width="1.652" stroke-linecap="round" stroke-linejoin="round" stroke-miterlimit="10" d="
					M623.221,254.319c0-3.923,2.967-7.12,6.607-7.12c3.651,0,6.622,3.197,6.622,7.12c0,3.924-2.971,7.096-6.622,7.096
					C626.188,261.415,623.221,258.243,623.221,254.319z"/>
			</g>
			<g>
				
					<path fill="#E4D9E8" stroke="#E4D9E8" stroke-width="1.6516" stroke-linecap="round" stroke-linejoin="round" stroke-miterlimit="10" d="
					M346.883,382.869l57.475-31.496l0,0c6.172-3.393,12.979,0,12.979,0l9.814,5.135l-70.527,38.624l-16.445-8.517L346.883,382.869z"
					/>
				<polygon fill="#F5F5F6" points="427.139,160.596 427.139,344.733 356.494,382.526 356.494,198.366 				"/>
				
					<polygon fill="none" stroke="#7B418C" stroke-width="1.652" stroke-linecap="round" stroke-linejoin="round" stroke-miterlimit="10" points="
					427.139,160.596 427.139,344.733 356.494,382.526 356.494,198.366 				"/>
				<path fill="#E4D9E8" d="M347.215,187.018l56.955-30.948h0.004c6.107-3.331,12.857,0,12.857,0l9.725,5.052l-69.883,37.94
					l-14.23-7.367C344.596,188.44,347.215,187.018,347.215,187.018"/>
				
					<line fill="none" stroke="#7B418C" stroke-width="1.652" stroke-linecap="round" stroke-linejoin="round" stroke-miterlimit="10" x1="399.045" y1="341.184" x2="384.713" y2="349.401"/>
				
					<path fill="none" stroke="#7B418C" stroke-width="1.652" stroke-linecap="round" stroke-linejoin="round" stroke-miterlimit="10" d="
					M346.869,186.77l57.479-31.073h0.01c6.162-3.35,12.969,0,12.969,0l9.812,5.063l-70.525,38.105l-14.352-7.406
					C344.227,188.188,346.869,186.77,346.869,186.77z"/>
				<polygon fill="#E4D9E8" points="416.152,187.018 416.152,317.25 367.477,343.447 367.477,213.191 				"/>
				<path fill="#E4D9E8" d="M346.674,377.036c0,0-6.109-3.099-6.109-12.095V198.916c0-3.162,0.891-5.633,1.992-7.509l14.295,7.145
					v183.612L346.674,377.036z"/>
				
					<path fill="none" stroke="#7B418C" stroke-width="1.652" stroke-linecap="round" stroke-linejoin="round" stroke-miterlimit="10" d="
					M346.301,377.403c0,0-6.111-3.113-6.111-12.149V198.564c0-3.175,0.883-5.655,1.994-7.543l14.305,7.179v184.349L346.301,377.403z
					"/>
			</g>
			<g>
				
					<polygon fill="#E4D9E8" stroke="#E4D9E8" stroke-width="1.6516" stroke-linecap="round" stroke-linejoin="round" stroke-miterlimit="10" points="
					1812.355,207.122 1802.451,211.721 1713.178,170.594 1685.11,183.625 1633.874,157.971 1631.998,159.625 1631.998,208.295 
					1598.807,223.517 1682.17,265.227 1697.327,258.147 1781.607,300.978 1797.359,293.836 1836.895,313.616 1934.544,268.26 				
					"/>
				<polygon fill="#E4D9E8" points="1593.125,17.639 1593.125,36.023 1599.154,39.03 1599.154,205.313 1685.502,248.512 
					1701.463,241.087 1783.881,282.326 1799.617,275.218 1799.617,274.453 1839.062,294.17 1936.529,248.909 1936.529,133.116 
					1814.582,72.13 1786.805,85.019 1736.082,59.642 1739.063,58.263 1739.063,39.877 1645.758,-6.81 				"/>
				<polygon fill="#F5F5F6" points="1593.125,17.639 1593.125,36.023 1599.154,39.03 1599.154,161.717 1612.367,168.326 
					1612.367,211.924 1671.899,241.701 1671.899,198.088 1685.502,204.915 1701.463,197.492 1783.881,238.729 1799.617,231.621 
					1799.617,230.824 1839.062,250.571 1936.529,205.313 1936.529,133.116 1814.582,72.13 1786.805,85.019 1736.082,59.642 
					1739.063,58.263 1739.063,39.877 1645.758,-6.81 				"/>
				
					<line fill="none" stroke="#7B418C" stroke-width="1.652" stroke-linecap="round" stroke-linejoin="round" stroke-miterlimit="10" x1="1671.992" y1="184.32" x2="1612.393" y2="154.161"/>
				
					<polyline fill="none" stroke="#7B418C" stroke-width="1.652" stroke-linecap="round" stroke-linejoin="round" stroke-miterlimit="10" points="
					1612.075,212.139 1612.075,141.155 1671.932,171.034 1671.932,242.035 				"/>
				
					<polygon fill="none" stroke="#7B418C" stroke-width="1.652" stroke-linecap="round" stroke-linejoin="round" stroke-miterlimit="10" points="
					1686.514,82.495 1685.593,248.843 1598.807,205.512 1598.807,38.698 				"/>
				
					<polygon fill="none" stroke="#7B418C" stroke-width="1.652" stroke-linecap="round" stroke-linejoin="round" stroke-miterlimit="10" points="
					1701.553,241.37 1701.553,124.446 1734.562,109.315 1734.562,61.019 1734.562,60.239 1686.514,82.495 1685.593,248.843 
					1701.646,241.403 				"/>
				<polygon fill="#E4D9E8" points="1665.1,102.341 1652.691,96.162 1652.691,81.798 1631.957,71.433 1631.957,85.782 
					1620.006,79.804 1620.006,99.138 1631.957,105.114 1631.957,117.355 1652.691,127.734 1652.691,115.514 1665.1,121.724 				"/>
				
					<polygon fill="none" stroke="#7B418C" stroke-width="1.652" stroke-linecap="round" stroke-linejoin="round" stroke-miterlimit="10" points="
					1839.221,178.458 1799.684,158.676 1799.684,274.736 1839.221,294.5 1936.871,249.143 1936.871,133.101 				"/>
				
					<polyline fill="none" stroke="#7B418C" stroke-width="1.652" stroke-linecap="round" stroke-linejoin="round" stroke-miterlimit="10" points="
					1717.008,117.322 1701.246,124.446 1783.932,165.816 1799.684,158.676 				"/>
				
					<line fill="none" stroke="#7B418C" stroke-width="1.652" stroke-linecap="round" stroke-linejoin="round" stroke-miterlimit="10" x1="1839.221" y1="178.458" x2="1839.221" y2="294.5"/>
				
					<polygon fill="none" stroke="#7B418C" stroke-width="1.652" stroke-linecap="round" stroke-linejoin="round" stroke-miterlimit="10" points="
					1686.258,64.143 1592.776,17.356 1645.525,-7.142 1739.013,39.645 				"/>
				
					<polygon fill="none" stroke="#7B418C" stroke-width="1.652" stroke-linecap="round" stroke-linejoin="round" stroke-miterlimit="10" points="
					1686.258,64.143 1686.258,82.561 1592.776,35.776 1592.776,17.356 				"/>
				
					<polygon fill="none" stroke="#7B418C" stroke-width="1.652" stroke-linecap="round" stroke-linejoin="round" stroke-miterlimit="10" points="
					1686.258,82.561 1739.013,58.048 1739.013,39.645 1686.258,64.143 				"/>
				
					<polygon fill="none" stroke="#7B418C" stroke-width="1.652" stroke-linecap="round" stroke-linejoin="round" stroke-miterlimit="10" points="
					1814.68,71.965 1786.846,84.886 1736.023,59.442 1734.164,61.085 1734.164,109.351 1701.246,124.446 1783.932,165.816 
					1799.684,158.676 1839.221,178.458 1936.871,133.101 				"/>
				
					<polygon fill="none" stroke="#7B418C" stroke-width="1.652" stroke-linecap="round" stroke-linejoin="round" stroke-miterlimit="10" points="
					1783.932,282.657 1701.246,241.271 1701.246,124.446 1783.932,165.816 				"/>
				
					<polygon fill="none" stroke="#7B418C" stroke-width="1.652" stroke-linecap="round" stroke-linejoin="round" stroke-miterlimit="10" points="
					1783.932,282.657 1799.684,275.516 1799.684,158.676 1783.932,165.816 				"/>
				
					<polyline fill="none" stroke="#7B418C" stroke-width="1.652" stroke-linecap="round" stroke-linejoin="round" stroke-miterlimit="10" points="
					1673.908,171.732 1678.592,169.557 1678.592,154.991 1673.908,157.364 				"/>
				
					<polygon fill="none" stroke="#7B418C" stroke-width="1.652" stroke-linecap="round" stroke-linejoin="round" stroke-miterlimit="10" points="
					1606.021,123.384 1673.908,157.364 1673.908,171.732 1606.021,137.75 				"/>
				
					<polyline fill="none" stroke="#7B418C" stroke-width="1.652" stroke-linecap="round" stroke-linejoin="round" stroke-miterlimit="10" points="
					1678.592,154.991 1610.713,121.225 1606.021,123.384 				"/>
				
					<line fill="none" stroke="#7B418C" stroke-width="1.652" stroke-linecap="round" stroke-linejoin="round" stroke-miterlimit="10" x1="1641.881" y1="156.402" x2="1641.881" y2="227.003"/>
				
					<line fill="none" stroke="#7B418C" stroke-width="1.652" stroke-linecap="round" stroke-linejoin="round" stroke-miterlimit="10" x1="1671.449" y1="209.564" x2="1612.432" y2="180.036"/>
				
					<path fill="#F5F5F6" stroke="#7B418C" stroke-width="1.652" stroke-linecap="round" stroke-linejoin="round" stroke-miterlimit="10" d="
					M1894.718,107.871c0,7.21-13.155,13.055-29.356,13.055c-16.236,0-29.39-5.845-29.39-13.055c0-7.189,13.153-13.054,29.39-13.054
					C1881.562,94.817,1894.718,100.682,1894.718,107.871z"/>
				
					<path fill="#F5F5F6" stroke="#7B418C" stroke-width="1.652" stroke-linecap="round" stroke-linejoin="round" stroke-miterlimit="10" d="
					M1865.354,120.495c-16.229,0-29.382-5.812-29.382-12.972v22.688c0,7.173,13.153,12.97,29.382,12.97
					c16.209,0,29.364-5.797,29.364-12.97v-22.688C1894.718,114.683,1881.562,120.495,1865.354,120.495z"/>
			</g>
			<g>
				
					<polygon fill="#E4D9E8" stroke="#E4D9E8" stroke-width="1.6516" stroke-linecap="round" stroke-linejoin="round" stroke-miterlimit="10" points="
					1474.06,542.594 1425.046,515.59 1469.563,492.58 1518.564,519.573 				"/>
				<g>
					<polygon fill="#E4D9E8" points="1474.545,411.108 1425.559,385.063 1470.098,363.326 1519.064,388.925 					"/>
					
						<polygon fill="none" stroke="#7B418C" stroke-width="1.652" stroke-linecap="round" stroke-linejoin="round" stroke-miterlimit="10" points="
						1474.524,411.721 1425.551,385.063 1470.07,362.835 1519.064,388.925 					"/>
					<polygon fill="#F5F5F6" points="1474.524,411.721 1474.06,525.734 1426.044,499.068 1426.044,385.551 					"/>
					
						<polygon fill="none" stroke="#7B418C" stroke-width="1.652" stroke-linecap="round" stroke-linejoin="round" stroke-miterlimit="10" points="
						1475.011,411.366 1474.06,525.734 1425.559,499.431 1425.559,385.063 					"/>
					<polygon fill="#E4D9E8" points="1474.06,525.734 1518.572,502.948 1518.572,389.417 1474.545,411.721 					"/>
					
						<polygon fill="none" stroke="#7B418C" stroke-width="1.652" stroke-linecap="round" stroke-linejoin="round" stroke-miterlimit="10" points="
						1474.06,525.734 1519.064,503.321 1519.064,388.925 1474.06,411.351 					"/>
				</g>
			</g>
		</g>
	</g>
</g>
</svg>
