<?xml version="1.0" encoding="utf-8"?>
<!-- Generator: Adobe Illustrator 16.0.4, SVG Export Plug-In . SVG Version: 6.00 Build 0)  -->
<!DOCTYPE svg PUBLIC "-//W3C//DTD SVG 1.1//EN" "http://www.w3.org/Graphics/SVG/1.1/DTD/svg11.dtd">
<svg version="1.1" id="Layer_1" xmlns="http://www.w3.org/2000/svg" xmlns:xlink="http://www.w3.org/1999/xlink" x="0px" y="0px"
	 width="217px" height="97px" viewBox="0 0 217 97" enable-background="new 0 0 217 97" xml:space="preserve">
<g>
	
		<path fill="#F3755A" stroke="#F3755A" stroke-width="1.8881" stroke-linecap="round" stroke-linejoin="round" stroke-miterlimit="10" d="
		M44.332,86.674c0,4.821-9.485,8.733-21.176,8.733c-11.704,0-21.187-3.912-21.187-8.733c0-4.819,9.482-8.729,21.187-8.729
		C34.847,77.944,44.332,81.854,44.332,86.674"/>
	
		<path fill="#F3755A" stroke="#F3755A" stroke-width="1.8881" stroke-linecap="round" stroke-linejoin="round" stroke-miterlimit="10" d="
		M101.231,86.674c0,4.821-9.483,8.733-21.185,8.733c-11.698,0-21.182-3.912-21.182-8.733c0-4.819,9.483-8.729,21.182-8.729
		C91.748,77.944,101.231,81.854,101.231,86.674"/>
	
		<path fill="#F3755A" stroke="#F3755A" stroke-width="1.8881" stroke-linecap="round" stroke-linejoin="round" stroke-miterlimit="10" d="
		M158.131,86.674c0,4.821-9.484,8.733-21.182,8.733c-11.704,0-21.187-3.912-21.187-8.733c0-4.819,9.482-8.729,21.187-8.729
		C148.646,77.944,158.131,81.854,158.131,86.674"/>
	
		<path fill="#F3755A" stroke="#F3755A" stroke-width="1.8881" stroke-linecap="round" stroke-linejoin="round" stroke-miterlimit="10" d="
		M215.03,86.674c0,4.821-9.486,8.733-21.19,8.733c-11.695,0-21.182-3.912-21.182-8.733c0-4.819,9.486-8.729,21.182-8.729
		C205.544,77.944,215.03,81.854,215.03,86.674"/>
	<path fill="#FAAC18" d="M23.151,58.522c-11.833,0-21.422-4.03-21.422-8.998v30.38c0,4.972,9.589,9.003,21.422,9.003
		c11.829,0,21.417-4.031,21.417-9.003v-30.38C44.568,54.492,34.98,58.522,23.151,58.522"/>
	
		<path fill="none" stroke="#FFFFFF" stroke-width="2.0639" stroke-linecap="round" stroke-linejoin="round" stroke-miterlimit="10" d="
		M44.332,69.209c0,4.823-9.485,8.73-21.176,8.73c-11.704,0-21.187-3.907-21.187-8.73 M44.332,59.979
		c0,4.83-9.485,8.736-21.176,8.736c-11.704,0-21.187-3.906-21.187-8.736"/>
	
		<path fill="none" stroke="#7B418C" stroke-width="2.0639" stroke-linecap="round" stroke-linejoin="round" stroke-miterlimit="10" d="
		M23.151,58.666c-11.699,0-21.182-3.972-21.182-8.879v29.972c0,4.903,9.482,8.881,21.182,8.881c11.7,0,21.181-3.978,21.181-8.881
		V49.787C44.332,54.694,34.852,58.666,23.151,58.666z"/>
	<path fill="#7A428D" d="M40.148,70.725c0,0.831-0.702,1.503-1.571,1.503s-1.573-0.672-1.573-1.503c0-0.835,0.704-1.511,1.573-1.511
		S40.148,69.89,40.148,70.725"/>
	<path fill="#7A428D" d="M40.148,80.739c0,0.832-0.702,1.505-1.571,1.505s-1.573-0.673-1.573-1.505c0-0.835,0.704-1.51,1.573-1.51
		S40.148,79.904,40.148,80.739"/>
	<path fill="#7A428D" d="M40.148,60.839c0,0.832-0.702,1.506-1.571,1.506s-1.573-0.674-1.573-1.506c0-0.834,0.704-1.51,1.573-1.51
		S40.148,60.005,40.148,60.839"/>
	<path fill="#FAAC18" d="M80.047,58.522c-11.825,0-21.42-4.03-21.42-8.998v30.38c0,4.972,9.595,9.003,21.42,9.003
		c11.833,0,21.426-4.031,21.426-9.003v-30.38C101.473,54.492,91.88,58.522,80.047,58.522"/>
	
		<path fill="none" stroke="#FFFFFF" stroke-width="2.0639" stroke-linecap="round" stroke-linejoin="round" stroke-miterlimit="10" d="
		M101.231,69.209c0,4.823-9.483,8.73-21.185,8.73c-11.698,0-21.182-3.907-21.182-8.73 M101.231,59.979
		c0,4.83-9.483,8.736-21.185,8.736c-11.698,0-21.182-3.906-21.182-8.736"/>
	
		<path fill="none" stroke="#7B418C" stroke-width="2.0639" stroke-linecap="round" stroke-linejoin="round" stroke-miterlimit="10" d="
		M80.047,58.666c-11.698,0-21.182-3.972-21.182-8.879v29.972c0,4.903,9.483,8.881,21.182,8.881c11.701,0,21.185-3.978,21.185-8.881
		V49.787C101.231,54.694,91.748,58.666,80.047,58.666z"/>
	<path fill="#7A428D" d="M97.048,70.725c0,0.831-0.704,1.503-1.575,1.503c-0.862,0-1.566-0.672-1.566-1.503
		c0-0.835,0.704-1.511,1.566-1.511C96.344,69.214,97.048,69.89,97.048,70.725"/>
	<path fill="#7A428D" d="M97.048,80.739c0,0.832-0.704,1.505-1.575,1.505c-0.862,0-1.566-0.673-1.566-1.505
		c0-0.835,0.704-1.51,1.566-1.51C96.344,79.229,97.048,79.904,97.048,80.739"/>
	<path fill="#7A428D" d="M97.048,60.839c0,0.832-0.704,1.506-1.575,1.506c-0.862,0-1.566-0.674-1.566-1.506
		c0-0.834,0.704-1.51,1.566-1.51C96.344,59.329,97.048,60.005,97.048,60.839"/>
	<path fill="#FAAC18" d="M136.949,58.522c-11.833,0-21.426-4.03-21.426-8.998v30.38c0,4.972,9.593,9.003,21.426,9.003
		c11.825,0,21.415-4.031,21.415-9.003v-30.38C158.364,54.492,148.774,58.522,136.949,58.522"/>
	
		<path fill="none" stroke="#FFFFFF" stroke-width="2.0639" stroke-linecap="round" stroke-linejoin="round" stroke-miterlimit="10" d="
		M158.131,69.209c0,4.823-9.484,8.73-21.182,8.73c-11.704,0-21.187-3.907-21.187-8.73 M158.131,59.979
		c0,4.83-9.484,8.736-21.182,8.736c-11.704,0-21.187-3.906-21.187-8.736"/>
	
		<path fill="none" stroke="#7B418C" stroke-width="2.0639" stroke-linecap="round" stroke-linejoin="round" stroke-miterlimit="10" d="
		M136.949,58.666c-11.704,0-21.182-3.972-21.182-8.879v29.972c0,4.903,9.478,8.881,21.182,8.881c11.697,0,21.182-3.978,21.182-8.881
		V49.787C158.131,54.694,148.646,58.666,136.949,58.666z"/>
	<path fill="#7A428D" d="M153.94,70.725c0,0.831-0.699,1.503-1.571,1.503c-0.868,0-1.569-0.672-1.569-1.503
		c0-0.835,0.701-1.511,1.569-1.511C153.241,69.214,153.94,69.89,153.94,70.725"/>
	<path fill="#7A428D" d="M153.94,80.739c0,0.832-0.699,1.505-1.571,1.505c-0.868,0-1.569-0.673-1.569-1.505
		c0-0.835,0.701-1.51,1.569-1.51C153.241,79.229,153.94,79.904,153.94,80.739"/>
	<path fill="#7A428D" d="M153.94,60.839c0,0.832-0.699,1.506-1.571,1.506c-0.868,0-1.569-0.674-1.569-1.506
		c0-0.834,0.701-1.51,1.569-1.51C153.241,59.329,153.94,60.005,153.94,60.839"/>
	<path fill="#FAAC18" d="M193.84,58.522c-11.826,0-21.416-4.03-21.416-8.998v30.38c0,4.972,9.59,9.003,21.416,9.003
		c11.832,0,21.427-4.031,21.427-9.003v-30.38C215.267,54.492,205.672,58.522,193.84,58.522"/>
	
		<path fill="none" stroke="#FFFFFF" stroke-width="2.0639" stroke-linecap="round" stroke-linejoin="round" stroke-miterlimit="10" d="
		M215.03,69.209c0,4.823-9.486,8.73-21.19,8.73c-11.695,0-21.182-3.907-21.182-8.73 M215.03,59.979c0,4.83-9.486,8.736-21.19,8.736
		c-11.695,0-21.182-3.906-21.182-8.736"/>
	
		<path fill="none" stroke="#7B418C" stroke-width="2.0639" stroke-linecap="round" stroke-linejoin="round" stroke-miterlimit="10" d="
		M193.84,58.666c-11.695,0-21.182-3.972-21.182-8.879v29.972c0,4.903,9.486,8.881,21.182,8.881c11.704,0,21.184-3.978,21.184-8.881
		V49.787C215.023,54.694,205.544,58.666,193.84,58.666z"/>
	<path fill="#7A428D" d="M210.84,70.725c0,0.831-0.704,1.503-1.572,1.503c-0.869,0-1.568-0.672-1.568-1.503
		c0-0.835,0.699-1.511,1.568-1.511C210.136,69.214,210.84,69.89,210.84,70.725"/>
	<path fill="#7A428D" d="M210.84,80.739c0,0.832-0.704,1.505-1.572,1.505c-0.869,0-1.568-0.673-1.568-1.505
		c0-0.835,0.699-1.51,1.568-1.51C210.136,79.229,210.84,79.904,210.84,80.739"/>
	<path fill="#7A428D" d="M210.84,60.839c0,0.832-0.704,1.506-1.572,1.506c-0.869,0-1.568-0.674-1.568-1.506
		c0-0.834,0.699-1.51,1.568-1.51C210.136,59.329,210.84,60.005,210.84,60.839"/>
	
		<path fill="#FFFFFF" stroke="#7B418C" stroke-width="2.0639" stroke-linecap="round" stroke-linejoin="round" stroke-miterlimit="10" d="
		M44.332,49.787c0,4.817-9.485,8.729-21.176,8.729c-11.704,0-21.187-3.911-21.187-8.729c0-4.823,9.482-8.729,21.187-8.729
		C34.847,41.059,44.332,44.964,44.332,49.787z"/>
	
		<path fill="#FFFFFF" stroke="#7B418C" stroke-width="2.0639" stroke-linecap="round" stroke-linejoin="round" stroke-miterlimit="10" d="
		M101.231,49.787c0,4.817-9.483,8.729-21.185,8.729c-11.698,0-21.182-3.911-21.182-8.729c0-4.823,9.483-8.729,21.182-8.729
		C91.748,41.059,101.231,44.964,101.231,49.787z"/>
	
		<path fill="#FFFFFF" stroke="#7B418C" stroke-width="2.0639" stroke-linecap="round" stroke-linejoin="round" stroke-miterlimit="10" d="
		M158.131,49.787c0,4.817-9.484,8.729-21.182,8.729c-11.704,0-21.187-3.911-21.187-8.729c0-4.823,9.482-8.729,21.187-8.729
		C148.646,41.059,158.131,44.964,158.131,49.787z"/>
	
		<path fill="#FFFFFF" stroke="#7B418C" stroke-width="2.0639" stroke-linecap="round" stroke-linejoin="round" stroke-miterlimit="10" d="
		M215.03,49.787c0,4.817-9.486,8.729-21.19,8.729c-11.695,0-21.182-3.911-21.182-8.729c0-4.823,9.486-8.729,21.182-8.729
		C205.544,41.059,215.03,44.964,215.03,49.787z"/>
	<g>
		<path fill="#FAAC18" d="M23.151,19.144c-11.833,0-21.422-4.031-21.422-8.998v30.377c0,4.971,9.589,9.002,21.422,9.002
			c11.829,0,21.417-4.031,21.417-9.002V10.146C44.568,15.112,34.98,19.144,23.151,19.144"/>
		
			<path fill="none" stroke="#FFFFFF" stroke-width="2.0639" stroke-linecap="round" stroke-linejoin="round" stroke-miterlimit="10" d="
			M44.332,29.831c0,4.82-9.485,8.73-21.176,8.73c-11.704,0-21.187-3.91-21.187-8.73 M44.332,20.601
			c0,4.827-9.485,8.738-21.176,8.738c-11.704,0-21.187-3.911-21.187-8.738"/>
		
			<path fill="none" stroke="#7B418C" stroke-width="2.0639" stroke-linecap="round" stroke-linejoin="round" stroke-miterlimit="10" d="
			M23.151,19.288c-11.699,0-21.182-3.975-21.182-8.882v29.976c0,4.901,9.482,8.879,21.182,8.879c11.7,0,21.181-3.978,21.181-8.879
			V10.406C44.332,15.313,34.852,19.288,23.151,19.288z"/>
		<path fill="#7A428D" d="M40.148,31.342c0,0.832-0.702,1.503-1.571,1.503s-1.573-0.671-1.573-1.503
			c0-0.836,0.704-1.505,1.573-1.505S40.148,30.506,40.148,31.342"/>
		<path fill="#7A428D" d="M40.148,41.359c0,0.829-0.702,1.505-1.571,1.505s-1.573-0.676-1.573-1.505c0-0.837,0.704-1.51,1.573-1.51
			S40.148,40.522,40.148,41.359"/>
		<path fill="#7A428D" d="M40.148,21.463c0,0.83-0.702,1.499-1.571,1.499s-1.573-0.669-1.573-1.499c0-0.84,0.704-1.511,1.573-1.511
			S40.148,20.623,40.148,21.463"/>
		<path fill="#FAAC18" d="M80.047,19.144c-11.825,0-21.42-4.031-21.42-8.998v30.377c0,4.971,9.595,9.002,21.42,9.002
			c11.833,0,21.426-4.031,21.426-9.002V10.146C101.473,15.112,91.88,19.144,80.047,19.144"/>
		
			<path fill="none" stroke="#FFFFFF" stroke-width="2.0639" stroke-linecap="round" stroke-linejoin="round" stroke-miterlimit="10" d="
			M101.231,29.831c0,4.82-9.483,8.73-21.185,8.73c-11.698,0-21.182-3.91-21.182-8.73 M101.231,20.601
			c0,4.827-9.483,8.738-21.185,8.738c-11.698,0-21.182-3.911-21.182-8.738"/>
		
			<path fill="none" stroke="#7B418C" stroke-width="2.0639" stroke-linecap="round" stroke-linejoin="round" stroke-miterlimit="10" d="
			M80.047,19.288c-11.698,0-21.182-3.975-21.182-8.882v29.976c0,4.901,9.483,8.879,21.182,8.879c11.701,0,21.185-3.978,21.185-8.879
			V10.406C101.231,15.313,91.748,19.288,80.047,19.288z"/>
		<path fill="#7A428D" d="M97.048,31.342c0,0.832-0.704,1.503-1.575,1.503c-0.862,0-1.566-0.671-1.566-1.503
			c0-0.836,0.704-1.505,1.566-1.505C96.344,29.837,97.048,30.506,97.048,31.342"/>
		<path fill="#7A428D" d="M97.048,41.359c0,0.829-0.704,1.505-1.575,1.505c-0.862,0-1.566-0.676-1.566-1.505
			c0-0.837,0.704-1.51,1.566-1.51C96.344,39.85,97.048,40.522,97.048,41.359"/>
		<path fill="#7A428D" d="M97.048,21.463c0,0.83-0.704,1.499-1.575,1.499c-0.862,0-1.566-0.669-1.566-1.499
			c0-0.84,0.704-1.511,1.566-1.511C96.344,19.952,97.048,20.623,97.048,21.463"/>
		<path fill="#FAAC18" d="M136.949,19.144c-11.833,0-21.426-4.031-21.426-8.998v30.377c0,4.971,9.593,9.002,21.426,9.002
			c11.825,0,21.415-4.031,21.415-9.002V10.146C158.364,15.112,148.774,19.144,136.949,19.144"/>
		
			<path fill="none" stroke="#FFFFFF" stroke-width="2.0639" stroke-linecap="round" stroke-linejoin="round" stroke-miterlimit="10" d="
			M158.131,29.831c0,4.82-9.484,8.73-21.182,8.73c-11.704,0-21.187-3.91-21.187-8.73 M158.131,20.601
			c0,4.827-9.484,8.738-21.182,8.738c-11.704,0-21.187-3.911-21.187-8.738"/>
		
			<path fill="none" stroke="#7B418C" stroke-width="2.0639" stroke-linecap="round" stroke-linejoin="round" stroke-miterlimit="10" d="
			M136.949,19.288c-11.704,0-21.182-3.975-21.182-8.882v29.976c0,4.901,9.478,8.879,21.182,8.879
			c11.697,0,21.182-3.978,21.182-8.879V10.406C158.131,15.313,148.646,19.288,136.949,19.288z"/>
		<path fill="#7A428D" d="M153.94,31.342c0,0.832-0.699,1.503-1.571,1.503c-0.868,0-1.569-0.671-1.569-1.503
			c0-0.836,0.701-1.505,1.569-1.505C153.241,29.837,153.94,30.506,153.94,31.342"/>
		<path fill="#7A428D" d="M153.94,41.359c0,0.829-0.699,1.505-1.571,1.505c-0.868,0-1.569-0.676-1.569-1.505
			c0-0.837,0.701-1.51,1.569-1.51C153.241,39.85,153.94,40.522,153.94,41.359"/>
		<path fill="#7A428D" d="M153.94,21.463c0,0.83-0.699,1.499-1.571,1.499c-0.868,0-1.569-0.669-1.569-1.499
			c0-0.84,0.701-1.511,1.569-1.511C153.241,19.952,153.94,20.623,153.94,21.463"/>
		<path fill="#FAAC18" d="M193.84,19.144c-11.826,0-21.416-4.031-21.416-8.998v30.377c0,4.971,9.59,9.002,21.416,9.002
			c11.832,0,21.427-4.031,21.427-9.002V10.146C215.267,15.112,205.672,19.144,193.84,19.144"/>
		
			<path fill="none" stroke="#FFFFFF" stroke-width="2.0639" stroke-linecap="round" stroke-linejoin="round" stroke-miterlimit="10" d="
			M215.03,29.831c0,4.82-9.486,8.73-21.19,8.73c-11.695,0-21.182-3.91-21.182-8.73 M215.03,20.601c0,4.827-9.486,8.738-21.19,8.738
			c-11.695,0-21.182-3.911-21.182-8.738"/>
		
			<path fill="none" stroke="#7B418C" stroke-width="2.0639" stroke-linecap="round" stroke-linejoin="round" stroke-miterlimit="10" d="
			M193.84,19.288c-11.695,0-21.182-3.975-21.182-8.882v29.976c0,4.901,9.486,8.879,21.182,8.879c11.704,0,21.184-3.978,21.184-8.879
			V10.406C215.023,15.313,205.544,19.288,193.84,19.288z"/>
		<path fill="#7A428D" d="M210.84,31.342c0,0.832-0.704,1.503-1.572,1.503c-0.869,0-1.568-0.671-1.568-1.503
			c0-0.836,0.699-1.505,1.568-1.505C210.136,29.837,210.84,30.506,210.84,31.342"/>
		<path fill="#7A428D" d="M210.84,41.359c0,0.829-0.704,1.505-1.572,1.505c-0.869,0-1.568-0.676-1.568-1.505
			c0-0.837,0.699-1.51,1.568-1.51C210.136,39.85,210.84,40.522,210.84,41.359"/>
		<path fill="#7A428D" d="M210.84,21.463c0,0.83-0.704,1.499-1.572,1.499c-0.869,0-1.568-0.669-1.568-1.499
			c0-0.84,0.699-1.511,1.568-1.511C210.136,19.952,210.84,20.623,210.84,21.463"/>
		
			<path fill="#FFFFFF" stroke="#7B418C" stroke-width="2.0639" stroke-linecap="round" stroke-linejoin="round" stroke-miterlimit="10" d="
			M44.332,10.406c0,4.819-9.485,8.727-21.176,8.727c-11.704,0-21.187-3.907-21.187-8.727c0-4.823,9.482-8.726,21.187-8.726
			C34.847,1.681,44.332,5.583,44.332,10.406z"/>
		
			<path fill="#FFFFFF" stroke="#7B418C" stroke-width="2.0639" stroke-linecap="round" stroke-linejoin="round" stroke-miterlimit="10" d="
			M101.231,10.406c0,4.819-9.483,8.727-21.185,8.727c-11.698,0-21.182-3.907-21.182-8.727c0-4.823,9.483-8.726,21.182-8.726
			C91.748,1.681,101.231,5.583,101.231,10.406z"/>
		
			<path fill="#FFFFFF" stroke="#7B418C" stroke-width="2.0639" stroke-linecap="round" stroke-linejoin="round" stroke-miterlimit="10" d="
			M158.131,10.406c0,4.819-9.484,8.727-21.182,8.727c-11.704,0-21.187-3.907-21.187-8.727c0-4.823,9.482-8.726,21.187-8.726
			C148.646,1.681,158.131,5.583,158.131,10.406z"/>
		
			<path fill="#FFFFFF" stroke="#7B418C" stroke-width="2.0639" stroke-linecap="round" stroke-linejoin="round" stroke-miterlimit="10" d="
			M215.03,10.406c0,4.819-9.486,8.727-21.19,8.727c-11.695,0-21.182-3.907-21.182-8.727c0-4.823,9.486-8.726,21.182-8.726
			C205.544,1.681,215.03,5.583,215.03,10.406z"/>
	</g>
</g>
<g opacity="0.1">
	<defs>
		<rect id="SVGID_12_" x="-800.771" y="-1066.508" opacity="0.1" width="1964" height="954"/>
	</defs>
	<clipPath id="SVGID_2_">
		<use xlink:href="#SVGID_12_"  overflow="visible"/>
	</clipPath>
</g>
</svg>
