<?xml version="1.0" encoding="utf-8"?>
<!-- Generator: Adobe Illustrator 16.0.4, SVG Export Plug-In . SVG Version: 6.00 Build 0)  -->
<!DOCTYPE svg PUBLIC "-//W3C//DTD SVG 1.1//EN" "http://www.w3.org/Graphics/SVG/1.1/DTD/svg11.dtd">
<svg version="1.1" id="Layer_1" xmlns="http://www.w3.org/2000/svg" xmlns:xlink="http://www.w3.org/1999/xlink" x="0px" y="0px"
	 width="227px" height="97px" viewBox="0 0 227 97" enable-background="new 0 0 227 97" xml:space="preserve">
<g>
	<path fill="#F27657" d="M145.108,73.73c0,3.284-2.666,5.949-5.95,5.949H97.037c-3.281,0-5.947-2.665-5.947-5.949V31.604
		c0-3.284,2.666-5.949,5.947-5.949h42.121c3.284,0,5.95,2.665,5.95,5.949V73.73z"/>
	
		<path fill="none" stroke="#F27657" stroke-width="2.0639" stroke-linecap="round" stroke-linejoin="round" stroke-miterlimit="10" d="
		M145.108,73.73c0,3.284-2.666,5.949-5.95,5.949H97.037c-3.281,0-5.947-2.665-5.947-5.949V31.604c0-3.284,2.666-5.949,5.947-5.949
		h42.121c3.284,0,5.95,2.665,5.95,5.949V73.73z"/>
	
		<polyline fill="none" stroke="#7B418C" stroke-width="2.0639" stroke-linecap="round" stroke-linejoin="round" stroke-miterlimit="10" points="
		130.119,90.128 188.639,90.128 188.639,80.653 	"/>
	
		<line fill="none" stroke="#7B418C" stroke-width="2.0639" stroke-linecap="round" stroke-linejoin="round" stroke-miterlimit="10" x1="61.141" y1="90.123" x2="97.769" y2="90.123"/>
	
		<line fill="none" stroke="#7B418C" stroke-width="2.0639" stroke-linecap="round" stroke-linejoin="round" stroke-miterlimit="10" x1="130.119" y1="6.875" x2="164.6" y2="6.875"/>
	
		<polyline fill="none" stroke="#7B418C" stroke-width="2.0639" stroke-linecap="round" stroke-linejoin="round" stroke-miterlimit="10" points="
		97.769,6.875 39.307,6.875 39.307,14.082 	"/>
	<path fill="#FAAC18" d="M141.043,69.625c0,3.294-2.673,5.97-5.969,5.97h-42.25c-3.296,0-5.972-2.676-5.972-5.97V27.368
		c0-3.3,2.676-5.977,5.972-5.977h42.25c3.296,0,5.969,2.677,5.969,5.977V69.625z"/>
	
		<path fill="none" stroke="#7B418C" stroke-width="2.0639" stroke-linecap="round" stroke-linejoin="round" stroke-miterlimit="10" d="
		M99.822,35.426c4.148,1.982,8.975,3.122,14.135,3.122c5.148,0,9.98-1.14,14.134-3.122"/>
	
		<path fill="none" stroke="#7B418C" stroke-width="2.0639" stroke-linecap="round" stroke-linejoin="round" stroke-miterlimit="10" d="
		M128.091,61.557c-4.153-1.979-8.985-3.117-14.134-3.117c-5.16,0-9.986,1.139-14.135,3.117"/>
	
		<line fill="none" stroke="#7B418C" stroke-width="2.0639" stroke-linecap="round" stroke-linejoin="round" stroke-miterlimit="10" x1="107.523" y1="38.049" x2="107.523" y2="58.944"/>
	
		<line fill="none" stroke="#7B418C" stroke-width="2.0639" stroke-linecap="round" stroke-linejoin="round" stroke-miterlimit="10" x1="120.392" y1="38.049" x2="120.392" y2="58.944"/>
	
		<line fill="none" stroke="#7B418C" stroke-width="2.0639" stroke-linecap="round" stroke-linejoin="round" stroke-miterlimit="10" x1="162.589" y1="59.515" x2="214.78" y2="59.515"/>
	
		<polyline fill="none" stroke="#7B418C" stroke-width="2.0639" stroke-linecap="round" stroke-linejoin="round" stroke-miterlimit="10" points="
		162.589,37.457 203.902,37.457 203.902,11.996 	"/>
	
		<line fill="none" stroke="#7B418C" stroke-width="2.0639" stroke-linecap="round" stroke-linejoin="round" stroke-miterlimit="10" x1="63.511" y1="37.457" x2="12.212" y2="37.457"/>
	
		<polyline fill="none" stroke="#7B418C" stroke-width="2.0639" stroke-linecap="round" stroke-linejoin="round" stroke-miterlimit="10" points="
		68.627,64.609 68.627,72.607 33.146,80.604 	"/>
	
		<path fill="none" stroke="#7B418C" stroke-width="2.0639" stroke-linecap="round" stroke-linejoin="round" stroke-miterlimit="10" d="
		M141.013,69.549c0,3.285-2.671,5.945-5.96,5.945H92.847c-3.291,0-5.962-2.66-5.962-5.945V27.428c0-3.29,2.671-5.949,5.962-5.949
		h42.206c3.289,0,5.96,2.659,5.96,5.949V69.549z"/>
	<path fill="#FAAC18" d="M73.57,37.402c0,2.78-2.245,5.025-5.021,5.025s-5.021-2.245-5.021-5.025c0-2.773,2.245-5.025,5.021-5.025
		S73.57,34.629,73.57,37.402"/>
	
		<circle fill="none" stroke="#7B418C" stroke-width="2.0639" stroke-linecap="round" stroke-linejoin="round" stroke-miterlimit="10" cx="68.549" cy="37.402" r="4.91"/>
	<path fill="#FFFFFF" d="M11.795,37.402c0,2.715-2.202,4.913-4.917,4.913c-2.706,0-4.908-2.198-4.908-4.913
		c0-2.713,2.202-4.912,4.908-4.912C9.593,32.49,11.795,34.689,11.795,37.402"/>
	
		<path fill="none" stroke="#7B418C" stroke-width="2.0639" stroke-linecap="round" stroke-linejoin="round" stroke-miterlimit="10" d="
		M11.795,37.402c0,2.715-2.202,4.913-4.917,4.913c-2.706,0-4.908-2.198-4.908-4.913c0-2.713,2.202-4.912,4.908-4.912
		C9.593,32.49,11.795,34.689,11.795,37.402z"/>
	<path fill="#FAAC18" d="M73.57,59.601c0,2.772-2.245,5.021-5.021,5.021s-5.021-2.248-5.021-5.021c0-2.778,2.245-5.03,5.021-5.03
		S73.57,56.822,73.57,59.601"/>
	
		<path fill="none" stroke="#7B418C" stroke-width="2.0639" stroke-linecap="round" stroke-linejoin="round" stroke-miterlimit="10" d="
		M73.459,59.601c0,2.708-2.199,4.907-4.912,4.907c-2.709,0-4.907-2.199-4.907-4.907c0-2.715,2.198-4.918,4.907-4.918
		C71.26,54.683,73.459,56.886,73.459,59.601z"/>
	<path fill="#FFFFFF" d="M32.785,80.814c0,2.715-2.2,4.912-4.913,4.912c-2.71,0-4.911-2.197-4.911-4.912
		c0-2.714,2.201-4.912,4.911-4.912C30.585,75.902,32.785,78.101,32.785,80.814"/>
	
		<path fill="none" stroke="#7B418C" stroke-width="2.0639" stroke-linecap="round" stroke-linejoin="round" stroke-miterlimit="10" d="
		M32.785,80.814c0,2.715-2.2,4.912-4.913,4.912c-2.71,0-4.911-2.197-4.911-4.912c0-2.714,2.201-4.912,4.911-4.912
		C30.585,75.902,32.785,78.101,32.785,80.814z"/>
	<path fill="#FAAC18" d="M162.601,37.402c0,2.78-2.249,5.025-5.023,5.025c-2.777,0-5.03-2.245-5.03-5.025
		c0-2.773,2.253-5.025,5.03-5.025C160.352,32.377,162.601,34.629,162.601,37.402"/>
	
		<circle fill="none" stroke="#7B418C" stroke-width="2.0639" stroke-linecap="round" stroke-linejoin="round" stroke-miterlimit="10" cx="157.573" cy="37.402" r="4.915"/>
	<path fill="#FFFFFF" d="M209.003,6.665c0,2.714-2.2,4.908-4.913,4.908c-2.714,0-4.913-2.194-4.913-4.908
		c0-2.708,2.199-4.907,4.913-4.907C206.803,1.758,209.003,3.957,209.003,6.665"/>
	
		<path fill="none" stroke="#7B418C" stroke-width="2.0639" stroke-linecap="round" stroke-linejoin="round" stroke-miterlimit="10" d="
		M209.003,6.665c0,2.714-2.2,4.908-4.913,4.908c-2.714,0-4.913-2.194-4.913-4.908c0-2.708,2.199-4.907,4.913-4.907
		C206.803,1.758,209.003,3.957,209.003,6.665z"/>
	<path fill="#FAAC18" d="M162.601,59.601c0,2.772-2.249,5.021-5.023,5.021c-2.777,0-5.03-2.248-5.03-5.021
		c0-2.778,2.253-5.03,5.03-5.03C160.352,54.57,162.601,56.822,162.601,59.601"/>
	
		<path fill="none" stroke="#7B418C" stroke-width="2.0639" stroke-linecap="round" stroke-linejoin="round" stroke-miterlimit="10" d="
		M162.488,59.601c0,2.708-2.199,4.907-4.913,4.907c-2.712,0-4.917-2.199-4.917-4.907c0-2.715,2.205-4.918,4.917-4.918
		C160.289,54.683,162.488,56.886,162.488,59.601z"/>
	<path fill="#FFFFFF" d="M225.03,59.601c0,2.708-2.198,4.907-4.912,4.907s-4.918-2.199-4.918-4.907c0-2.715,2.204-4.918,4.918-4.918
		S225.03,56.886,225.03,59.601"/>
	
		<path fill="none" stroke="#7B418C" stroke-width="2.0639" stroke-linecap="round" stroke-linejoin="round" stroke-miterlimit="10" d="
		M225.03,59.601c0,2.708-2.198,4.907-4.912,4.907s-4.918-2.199-4.918-4.907c0-2.715,2.204-4.918,4.918-4.918
		S225.03,56.886,225.03,59.601z"/>
	<path fill="#FAAC18" d="M102.862,85.303c2.774,0,5.021,2.257,5.021,5.03c0,2.778-2.247,5.025-5.021,5.025s-5.024-2.247-5.024-5.025
		C97.838,87.56,100.088,85.303,102.862,85.303"/>
	
		<ellipse fill="none" stroke="#7B418C" stroke-width="2.0639" stroke-linecap="round" stroke-linejoin="round" stroke-miterlimit="10" cx="102.862" cy="90.331" rx="4.909" ry="4.916"/>
	<path fill="#FFFFFF" d="M55.892,85.415c2.711,0,4.913,2.204,4.913,4.913c0,2.715-2.202,4.918-4.913,4.918s-4.913-2.203-4.913-4.918
		C50.979,87.619,53.181,85.415,55.892,85.415"/>
	
		<path fill="none" stroke="#7B418C" stroke-width="2.0639" stroke-linecap="round" stroke-linejoin="round" stroke-miterlimit="10" d="
		M55.892,85.415c2.711,0,4.913,2.204,4.913,4.913c0,2.715-2.202,4.918-4.913,4.918s-4.913-2.203-4.913-4.918
		C50.979,87.619,53.181,85.415,55.892,85.415z"/>
	<path fill="#FAAC18" d="M125.053,85.303c2.775,0,5.026,2.257,5.026,5.03c0,2.778-2.251,5.025-5.026,5.025s-5.023-2.247-5.023-5.025
		C120.029,87.56,122.277,85.303,125.053,85.303"/>
	
		<path fill="none" stroke="#7B418C" stroke-width="2.0639" stroke-linecap="round" stroke-linejoin="round" stroke-miterlimit="10" d="
		M125.053,85.415c2.715,0,4.912,2.204,4.912,4.918s-2.197,4.913-4.912,4.913c-2.712,0-4.909-2.199-4.909-4.913
		S122.341,85.415,125.053,85.415z"/>
	<path fill="#FFFFFF" d="M188.842,70.779c2.715,0,4.914,2.198,4.914,4.912c0,2.715-2.199,4.913-4.914,4.913
		c-2.709,0-4.909-2.198-4.909-4.913C183.933,72.978,186.133,70.779,188.842,70.779"/>
	
		<path fill="none" stroke="#7B418C" stroke-width="2.0639" stroke-linecap="round" stroke-linejoin="round" stroke-miterlimit="10" d="
		M188.842,70.779c2.715,0,4.914,2.198,4.914,4.912c0,2.715-2.199,4.913-4.914,4.913c-2.709,0-4.909-2.198-4.909-4.913
		C183.933,72.978,186.133,70.779,188.842,70.779z"/>
	<path fill="#FAAC18" d="M102.862,1.635c2.774,0,5.021,2.256,5.021,5.024c0,2.784-2.247,5.03-5.021,5.03s-5.024-2.246-5.024-5.03
		C97.838,3.891,100.088,1.635,102.862,1.635"/>
	
		<path fill="none" stroke="#7B418C" stroke-width="2.0639" stroke-linecap="round" stroke-linejoin="round" stroke-miterlimit="10" d="
		M102.862,1.754c2.71,0,4.909,2.203,4.909,4.905c0,2.72-2.199,4.919-4.909,4.919c-2.714,0-4.91-2.199-4.91-4.919
		C97.952,3.957,100.148,1.754,102.862,1.754z"/>
	<path fill="#FAAC18" d="M125.053,1.635c2.775,0,5.026,2.256,5.026,5.024c0,2.784-2.251,5.03-5.026,5.03s-5.023-2.246-5.023-5.03
		C120.029,3.891,122.277,1.635,125.053,1.635"/>
	
		<path fill="none" stroke="#7B418C" stroke-width="2.0639" stroke-linecap="round" stroke-linejoin="round" stroke-miterlimit="10" d="
		M125.053,1.754c2.715,0,4.912,2.203,4.912,4.905c0,2.72-2.197,4.919-4.912,4.919c-2.712,0-4.909-2.199-4.909-4.919
		C120.144,3.957,122.341,1.754,125.053,1.754z"/>
	<path fill="#FFFFFF" d="M169.671,1.754c2.821,0,5.105,2.25,5.105,5.024c0,2.778-2.284,5.036-5.105,5.036
		c-2.822,0-5.112-2.258-5.112-5.036C164.559,4.004,166.849,1.754,169.671,1.754"/>
	<path fill="#FFFFFF" d="M39.297,13.894c2.821,0,5.105,2.247,5.105,5.025c0,2.779-2.284,5.025-5.105,5.025s-5.106-2.246-5.106-5.025
		C34.19,16.141,36.476,13.894,39.297,13.894"/>
	
		<path fill="none" stroke="#7B418C" stroke-width="2.0639" stroke-linecap="round" stroke-linejoin="round" stroke-miterlimit="10" d="
		M169.671,1.754c2.821,0,5.105,2.25,5.105,5.024c0,2.778-2.284,5.036-5.105,5.036c-2.822,0-5.112-2.258-5.112-5.036
		C164.559,4.004,166.849,1.754,169.671,1.754z"/>
	
		<path fill="none" stroke="#7B418C" stroke-width="2.0639" stroke-linecap="round" stroke-linejoin="round" stroke-miterlimit="10" d="
		M39.297,13.894c2.821,0,5.105,2.247,5.105,5.025c0,2.779-2.284,5.025-5.105,5.025s-5.106-2.246-5.106-5.025
		C34.19,16.141,36.476,13.894,39.297,13.894z"/>
</g>
<g opacity="0.1">
	<defs>
		<rect id="SVGID_12_" x="-190.566" y="-1061.693" opacity="0.1" width="1964" height="954"/>
	</defs>
	<clipPath id="SVGID_2_">
		<use xlink:href="#SVGID_12_"  overflow="visible"/>
	</clipPath>
	
		<polygon opacity="0.5" clip-path="url(#SVGID_2_)" fill="#E4D9E8" stroke="#E4D9E8" stroke-width="1.6516" stroke-linecap="round" stroke-linejoin="round" stroke-miterlimit="10" points="
		-505.88,-181.227 -8.034,69.526 379.37,-110.441 -118.446,-361.269 	"/>
	<g clip-path="url(#SVGID_2_)">
		<defs>
			<polygon id="SVGID_16_" points="-473.21,-440.22 7.542,-198.063 380.538,-371.338 380.538,-372.421 -99.09,-614.069 			"/>
		</defs>
		<clipPath id="SVGID_3_">
			<use xlink:href="#SVGID_16_"  overflow="visible"/>
		</clipPath>
		
			<path clip-path="url(#SVGID_3_)" fill="none" stroke="#E4D9E8" stroke-width="1.6979" stroke-linecap="round" stroke-linejoin="round" stroke-miterlimit="10" d="
			M-592.362-599.22H435.729 M-592.362-580.821H435.729 M-592.362-562.431H435.729 M-592.362-544.036H435.729 M-592.362-525.638
			H435.729 M-592.362-507.243H435.729 M-592.362-488.849H435.729 M-592.362-470.459H435.729 M-592.362-452.052H435.729
			 M-592.362-433.662H435.729 M-592.362-415.271H435.729 M-592.362-396.872H435.729 M-592.362-378.475H435.729 M-592.362-360.085
			H435.729 M-592.362-341.685H435.729 M-592.362-323.288H435.729 M-592.362-304.897H435.729 M-592.362-286.498H435.729
			 M-592.362-268.107H435.729 M-592.362-249.71h1028.1 M-592.362-231.312H435.729 M-592.362-212.922H435.729 M469.093-433.743
			L-461.635,2.955 M461.278-450.395l-930.73,436.7 M453.472-467.047L-477.26-30.34 M445.655-483.692l-930.73,436.693
			 M437.84-500.354L-492.892-63.658 M430.036-517.008L-500.71-80.307 M422.22-533.663L-508.516-96.969 M414.411-550.305
			l-930.732,436.687 M406.593-566.972l-930.73,436.708 M398.778-583.624L-531.95-146.922 M390.962-600.269L-539.77-163.58
			 M383.152-616.919l-930.728,436.696 M375.336-633.586l-930.731,436.702 M367.521-650.235l-930.732,436.701 M359.702-666.89
			l-930.731,436.701 M351.884-683.549l-930.727,436.698 M344.079-700.192l-930.732,436.701 M336.264-716.844l-930.736,436.69
			 M328.461-733.497l-930.748,436.689 M320.642-750.15l-930.744,436.7 M312.827-766.805l-930.735,436.693 M305.017-783.454
			L-625.72-346.751"/>
	</g>
</g>
</svg>
