<?xml version="1.0" encoding="utf-8"?>
<!-- Generator: Adobe Illustrator 16.0.4, SVG Export Plug-In . SVG Version: 6.00 Build 0)  -->
<!DOCTYPE svg PUBLIC "-//W3C//DTD SVG 1.1//EN" "http://www.w3.org/Graphics/SVG/1.1/DTD/svg11.dtd">
<svg version="1.1" id="Layer_1" xmlns="http://www.w3.org/2000/svg" xmlns:xlink="http://www.w3.org/1999/xlink" x="0px" y="0px"
	 width="220px" height="78px" viewBox="0 0 220 78" enable-background="new 0 0 220 78" xml:space="preserve">
<g>
	<polyline fill="#F27657" points="90.857,45.948 112.033,58.708 133.729,46.174 133.729,45.948 112.451,33.141 90.857,45.599 	"/>
	
		<polyline fill="none" stroke="#F27657" stroke-width="1.874" stroke-linecap="round" stroke-linejoin="round" stroke-miterlimit="10" points="
		90.857,45.948 112.033,58.708 133.729,46.174 133.729,45.948 112.451,33.141 90.857,45.599 	"/>
	<polygon fill="#F27657" points="60.865,62.61 60.865,62.96 82.041,75.719 103.734,63.191 103.734,62.96 82.46,50.151 	"/>
	
		<polyline fill="none" stroke="#F27657" stroke-width="1.874" stroke-linecap="round" stroke-linejoin="round" stroke-miterlimit="10" points="
		60.867,62.96 82.041,75.719 103.736,63.185 103.736,62.96 82.46,50.151 60.867,62.61 	"/>
	<polyline fill="#F27657" points="31.766,45.948 52.938,58.708 74.635,46.174 74.635,45.948 53.357,33.141 31.766,45.599 	"/>
	
		<polyline fill="none" stroke="#F27657" stroke-width="1.874" stroke-linecap="round" stroke-linejoin="round" stroke-miterlimit="10" points="
		31.766,45.948 52.938,58.708 74.635,46.174 74.635,45.948 53.357,33.141 31.766,45.599 	"/>
	<polygon fill="#F27657" points="1.551,62.991 1.551,63.335 22.719,76.095 44.414,63.567 44.414,63.335 23.14,50.527 	"/>
	
		<polyline fill="none" stroke="#F27657" stroke-width="1.874" stroke-linecap="round" stroke-linejoin="round" stroke-miterlimit="10" points="
		1.547,63.335 22.721,76.095 44.416,63.561 44.416,63.335 23.14,50.527 1.547,62.985 	"/>
	<polygon fill="#FAAC18" points="90.764,14.991 90.764,19.327 90.764,29.583 90.764,40.149 112.037,52.909 133.838,40.386 
		133.838,15.329 112.457,2.521 	"/>
	<polygon fill="#FAAC18" points="32.828,14.991 32.828,19.327 32.828,29.583 32.828,40.149 54.104,52.909 75.9,40.386 75.9,15.329 
		54.523,2.521 	"/>
	<polyline fill="#FFFFFF" points="53.202,52.909 53.202,27.938 74.651,15.457 74.651,40.423 	"/>
	
		<polyline fill="none" stroke="#7B418C" stroke-width="2.0639" stroke-linecap="round" stroke-linejoin="round" stroke-miterlimit="10" points="
		53.202,52.909 53.202,27.938 74.651,15.457 74.651,40.423 	"/>
	<polygon fill="#FAAC18" points="1.631,32.985 1.631,37.322 1.631,47.583 1.631,58.153 22.902,70.909 44.703,58.386 44.703,33.328 
		23.326,20.521 	"/>
	<polyline fill="#FFFFFF" points="22.926,70.34 22.926,45.313 44.453,32.802 44.453,57.827 	"/>
	<polygon fill="#FAAC18" points="103.846,33.328 103.846,58.381 82.047,70.909 60.773,58.153 60.773,47.583 60.773,37.327 
		60.773,32.991 82.472,20.521 	"/>
	
		<line fill="none" stroke="#7B418C" stroke-width="2.0639" stroke-linecap="round" stroke-linejoin="round" stroke-miterlimit="10" x1="90.969" y1="15.114" x2="111.893" y2="27.497"/>
	
		<polyline fill="none" stroke="#7B418C" stroke-width="2.0639" stroke-linecap="round" stroke-linejoin="round" stroke-miterlimit="10" points="
		22.721,70.296 1.547,57.542 1.547,32.372 	"/>
	
		<polyline fill="none" stroke="#7B418C" stroke-width="2.0639" stroke-linecap="round" stroke-linejoin="round" stroke-miterlimit="10" points="
		44.416,32.716 23.14,19.913 1.547,32.372 	"/>
	
		<polyline fill="none" stroke="#7B418C" stroke-width="2.0639" stroke-linecap="round" stroke-linejoin="round" stroke-miterlimit="10" points="
		44.416,32.716 44.416,57.769 22.721,70.296 	"/>
	
		<polyline fill="none" stroke="#7B418C" stroke-width="2.0639" stroke-linecap="round" stroke-linejoin="round" stroke-miterlimit="10" points="
		22.926,70.333 22.926,45.313 44.456,32.802 44.456,57.827 	"/>
	
		<line fill="none" stroke="#7B418C" stroke-width="2.0639" stroke-linecap="round" stroke-linejoin="round" stroke-miterlimit="10" x1="31.574" y1="19.468" x2="31.574" y2="14.991"/>
	
		<polyline fill="none" stroke="#7B418C" stroke-width="2.0639" stroke-linecap="round" stroke-linejoin="round" stroke-miterlimit="10" points="
		52.852,52.909 31.574,40.153 31.574,29.224 	"/>
	
		<polyline fill="none" stroke="#7B418C" stroke-width="2.0639" stroke-linecap="round" stroke-linejoin="round" stroke-miterlimit="10" points="
		74.651,15.335 53.275,2.521 31.574,14.991 	"/>
	
		<polyline fill="none" stroke="#7B418C" stroke-width="2.0639" stroke-linecap="round" stroke-linejoin="round" stroke-miterlimit="10" points="
		74.651,15.335 74.651,40.386 52.852,52.909 	"/>
	
		<line fill="none" stroke="#7B418C" stroke-width="2.0639" stroke-linecap="round" stroke-linejoin="round" stroke-miterlimit="10" x1="1.547" y1="32.206" x2="22.823" y2="44.959"/>
	<polyline fill="#FFFFFF" points="112.387,52.909 112.387,27.938 133.838,15.457 133.838,40.423 	"/>
	
		<polyline fill="none" stroke="#7B418C" stroke-width="2.0639" stroke-linecap="round" stroke-linejoin="round" stroke-miterlimit="10" points="
		112.387,52.909 112.387,27.938 133.838,15.457 133.838,40.423 	"/>
	
		<line fill="none" stroke="#7B418C" stroke-width="2.0639" stroke-linecap="round" stroke-linejoin="round" stroke-miterlimit="10" stroke-dasharray="1.9978,6.9181" x1="124.211" y1="32.663" x2="161.865" y2="32.663"/>
	<polyline fill="#FFFFFF" points="82.127,70.34 82.127,45.368 103.567,32.883 103.567,57.859 	"/>
	
		<line fill="none" stroke="#7B418C" stroke-width="2.0639" stroke-linecap="round" stroke-linejoin="round" stroke-miterlimit="10" x1="31.777" y1="14.899" x2="53.141" y2="27.577"/>
	
		<line fill="none" stroke="#7B418C" stroke-width="2.0639" stroke-linecap="round" stroke-linejoin="round" stroke-miterlimit="10" x1="60.704" y1="43.847" x2="60.704" y2="32.415"/>
	
		<polyline fill="none" stroke="#7B418C" stroke-width="2.0639" stroke-linecap="round" stroke-linejoin="round" stroke-miterlimit="10" points="
		81.877,70.34 60.704,57.585 60.704,52.995 	"/>
	
		<polyline fill="none" stroke="#7B418C" stroke-width="2.0639" stroke-linecap="round" stroke-linejoin="round" stroke-miterlimit="10" points="
		103.567,32.759 82.294,19.952 78.639,22.063 60.704,32.415 	"/>
	
		<polyline fill="none" stroke="#7B418C" stroke-width="2.0639" stroke-linecap="round" stroke-linejoin="round" stroke-miterlimit="10" points="
		103.567,32.759 103.567,57.811 81.877,70.34 	"/>
	
		<polyline fill="none" stroke="#7B418C" stroke-width="2.0639" stroke-linecap="round" stroke-linejoin="round" stroke-miterlimit="10" points="
		82.124,70.34 82.124,45.368 103.567,32.883 103.567,57.859 	"/>
	
		<line fill="none" stroke="#7B418C" stroke-width="2.0639" stroke-linecap="round" stroke-linejoin="round" stroke-miterlimit="10" x1="90.764" y1="19.321" x2="90.764" y2="14.991"/>
	
		<polyline fill="none" stroke="#7B418C" stroke-width="2.0639" stroke-linecap="round" stroke-linejoin="round" stroke-miterlimit="10" points="
		112.037,52.909 90.764,40.153 90.764,29.583 	"/>
	
		<polyline fill="none" stroke="#7B418C" stroke-width="2.0639" stroke-linecap="round" stroke-linejoin="round" stroke-miterlimit="10" points="
		133.835,15.329 112.463,2.521 90.764,14.991 	"/>
	
		<polyline fill="none" stroke="#7B418C" stroke-width="2.0639" stroke-linecap="round" stroke-linejoin="round" stroke-miterlimit="10" points="
		133.835,15.329 133.835,40.381 112.037,52.909 	"/>
	
		<line fill="none" stroke="#7B418C" stroke-width="2.0639" stroke-linecap="round" stroke-linejoin="round" stroke-miterlimit="10" x1="60.704" y1="32.243" x2="81.977" y2="45.003"/>
	<path fill="#F27657" d="M218.547,71.134c0,2.736-13.754,4.961-30.727,4.961c-16.967,0-30.719-2.225-30.719-4.961
		c0-2.74,13.752-4.967,30.719-4.967C204.793,66.167,218.547,68.394,218.547,71.134"/>
	
		<path fill="none" stroke="#F27657" stroke-width="1.874" stroke-linecap="round" stroke-linejoin="round" stroke-miterlimit="10" d="
		M218.547,71.134c0,2.736-13.754,4.961-30.727,4.961c-16.967,0-30.719-2.225-30.719-4.961c0-2.74,13.752-4.967,30.719-4.967
		C204.793,66.167,218.547,68.394,218.547,71.134z"/>
	<path fill="#FAAC18" d="M187.654,2c-10.387,0-18.836,8.347-18.836,18.597v11.979c0.008,0.134,1.135,0.248,2.528,0.248
		c1.393,0,2.521-0.114,2.527-0.248V20.597c0-7.504,6.181-13.604,13.78-13.604c7.602,0,13.775,6.1,13.775,13.604v11.979
		c0.005,0.134,1.134,0.248,2.525,0.248c1.396,0,2.525-0.114,2.533-0.248V20.597C206.488,10.347,198.038,2,187.654,2"/>
	<line fill="#FAAC18" x1="167.16" y1="35.968" x2="167.16" y2="69.592"/>
	<path fill="#FAAC18" d="M187.823,36.995c-14.458,0-26.177-1.184-26.177-2.655V68.2c0,1.467,11.719,2.66,26.177,2.66
		S214,69.667,214,68.2V34.34C214,35.812,202.281,36.995,187.823,36.995"/>
	<path fill="#FFFFFF" d="M214.168,34.188v34.137c0,0.649-2.205,1.241-5.871,1.703V35.898
		C211.963,35.436,214.168,34.84,214.168,34.188"/>
	
		<line fill="none" stroke="#7B418C" stroke-width="2.0639" stroke-linecap="round" stroke-linejoin="round" stroke-miterlimit="10" x1="167.16" y1="35.968" x2="167.16" y2="69.592"/>
	
		<path fill="none" stroke="#7B418C" stroke-width="2.0639" stroke-linecap="round" stroke-linejoin="round" stroke-miterlimit="10" d="
		M187.823,36.995c-14.458,0-26.177-1.184-26.177-2.655V68.2c0,1.467,11.719,2.66,26.177,2.66S214,69.667,214,68.2V34.34
		C214,35.812,202.281,36.995,187.823,36.995z"/>
	<path fill="#FFFFFF" d="M192.033,50.802c0-2.387-1.88-4.32-4.213-4.32c-2.328,0-4.21,1.934-4.21,4.32
		c0,1.753,1.018,3.258,2.485,3.935v5.203c0,0.978,0.77,1.768,1.725,1.768c0.954,0,1.73-0.79,1.73-1.768v-5.203
		C191.014,54.06,192.033,52.555,192.033,50.802"/>
	
		<path fill="none" stroke="#7B418C" stroke-width="2.0639" stroke-linecap="round" stroke-linejoin="round" stroke-miterlimit="10" d="
		M192.033,50.802c0-2.387-1.88-4.32-4.213-4.32c-2.328,0-4.21,1.934-4.21,4.32c0,1.753,1.018,3.258,2.485,3.935v5.203
		c0,0.978,0.77,1.768,1.725,1.768c0.954,0,1.73-0.79,1.73-1.768v-5.203C191.014,54.06,192.033,52.555,192.033,50.802z"/>
	<path fill="#F27657" d="M187.906,1.877c-0.342,0-0.68,0.036-1.021,0.058c9.836,0.538,17.678,8.713,17.678,18.716v12.093v0.253
		c1.162-0.022,2.045-0.13,2.051-0.253V20.65C206.613,10.304,198.22,1.877,187.906,1.877"/>
	
		<path fill="none" stroke="#7B418C" stroke-width="2.0639" stroke-linecap="round" stroke-linejoin="round" stroke-miterlimit="10" d="
		M187.654,2c-10.387,0-18.836,8.347-18.836,18.597v11.979c0.008,0.134,1.135,0.248,2.528,0.248c1.393,0,2.521-0.114,2.527-0.248
		V20.597c0-7.504,6.181-13.604,13.78-13.604c7.602,0,13.775,6.1,13.775,13.604v11.979c0.005,0.134,1.134,0.248,2.525,0.248
		c1.396,0,2.525-0.114,2.533-0.248V20.597C206.488,10.347,198.038,2,187.654,2z"/>
	<path fill="#FFFFFF" d="M214,34.093c0,1.348-11.719,2.445-26.18,2.445c-14.459,0-26.18-1.098-26.18-2.445
		c0-1.35,11.721-2.441,26.18-2.441C202.281,31.651,214,32.743,214,34.093"/>
	
		<ellipse fill="none" stroke="#7B418C" stroke-width="2.0639" stroke-linecap="round" stroke-linejoin="round" stroke-miterlimit="10" cx="187.82" cy="34.336" rx="26.18" ry="2.446"/>
</g>
<g opacity="0.1">
	<defs>
		<rect id="SVGID_12_" x="-504.39" y="-1071.204" opacity="0.1" width="1964" height="954"/>
	</defs>
	<clipPath id="SVGID_2_">
		<use xlink:href="#SVGID_12_"  overflow="visible"/>
	</clipPath>
	
		<polygon opacity="0.5" clip-path="url(#SVGID_2_)" fill="#E4D9E8" stroke="#E4D9E8" stroke-width="1.6516" stroke-linecap="round" stroke-linejoin="round" stroke-miterlimit="10" points="
		-819.704,-190.737 -321.858,60.016 65.546,-119.952 -432.27,-370.78 	"/>
</g>
</svg>
