<?xml version="1.0" encoding="utf-8"?>
<!-- Generator: Adobe Illustrator 16.0.4, SVG Export Plug-In . SVG Version: 6.00 Build 0)  -->
<!DOCTYPE svg PUBLIC "-//W3C//DTD SVG 1.1//EN" "http://www.w3.org/Graphics/SVG/1.1/DTD/svg11.dtd">
<svg version="1.1" id="Layer_1" xmlns="http://www.w3.org/2000/svg" xmlns:xlink="http://www.w3.org/1999/xlink" x="0px" y="0px"
	 width="235px" height="135px" viewBox="0 0 235 135" enable-background="new 0 0 235 135" xml:space="preserve">
<g>
	
		<polygon fill="#F27659" stroke="#F27659" stroke-width="0.9699" stroke-linecap="round" stroke-linejoin="round" stroke-miterlimit="10" points="
		2.891,68.551 131.797,133.29 232.109,86.826 103.209,22.072 	"/>
	<polygon fill="#FCD58B" points="3.027,65.009 131.936,129.748 232.246,83.284 103.346,18.529 	"/>
	<path fill="#7B438B" d="M131.797,129.414l0.219-0.435L4.008,64.692l99.195-45.959l127.793,64.198l-99.404,46.043L131.797,129.414
		l0.219-0.435L131.797,129.414l0.205,0.438L232.318,83.39c0.166-0.079,0.275-0.248,0.277-0.433c0.002-0.187-0.102-0.358-0.266-0.441
		L103.428,17.761c-0.135-0.065-0.285-0.067-0.424-0.005L2.686,64.235c-0.17,0.078-0.277,0.245-0.281,0.432
		c-0.002,0.184,0.102,0.355,0.266,0.438l128.908,64.739c0.137,0.068,0.287,0.07,0.424,0.008L131.797,129.414z"/>
	<rect x="2.404" y="17.709" fill="none" width="230.191" height="115.581"/>
	<rect x="2.404" y="17.709" fill="none" width="230.191" height="115.581"/>
	<rect x="2.404" y="17.709" fill="none" width="230.191" height="115.581"/>
	<rect x="2.404" y="17.709" fill="none" width="230.191" height="115.581"/>
	
		<polyline fill="#F27659" stroke="#F27659" stroke-width="0.9699" stroke-linecap="round" stroke-linejoin="round" stroke-miterlimit="10" points="
		108.148,66.029 73.643,82.809 91.305,91.976 99.932,87.973 108.645,92.219 117.215,88.215 124.703,91.839 134.084,87.373 	"/>
	<rect x="2.404" y="17.709" fill="none" width="230.191" height="115.581"/>
	<rect x="2.404" y="17.709" fill="none" width="230.191" height="115.581"/>
	<rect x="2.404" y="17.709" fill="none" width="230.191" height="115.581"/>
	<g>
		
			<polyline fill="none" stroke="#D7C6DD" stroke-width="0.9699" stroke-linecap="round" stroke-linejoin="round" stroke-miterlimit="10" points="
			108.906,53.914 104.268,51.803 62.105,71.362 114.047,97.147 133.814,87.806 		"/>
		<g>
			<g>
				
					<line fill="none" stroke="#D7C6DD" stroke-width="0.9699" stroke-linecap="round" stroke-linejoin="round" x1="109.773" y1="75.3" x2="108.568" y2="74.669"/>
				
					<line fill="none" stroke="#D7C6DD" stroke-width="0.9699" stroke-linecap="round" stroke-linejoin="round" stroke-dasharray="3.003,3.003" x1="105.906" y1="73.273" x2="85.939" y2="62.811"/>
				
					<line fill="none" stroke="#D7C6DD" stroke-width="0.9699" stroke-linecap="round" stroke-linejoin="round" x1="84.607" y1="62.113" x2="83.402" y2="61.481"/>
			</g>
		</g>
		
			<line fill="none" stroke="#D7C6DD" stroke-width="0.9699" stroke-linecap="round" stroke-linejoin="round" stroke-miterlimit="10" stroke-dasharray="2.7189" x1="108.643" y1="74.737" x2="88.109" y2="84.271"/>
	</g>
	<g>
		
			<polygon fill="#FFFFFF" stroke="#7B438B" stroke-width="0.9699" stroke-linecap="round" stroke-linejoin="round" stroke-miterlimit="10" points="
			125.572,64.783 117.105,60.57 117.105,51.528 108.643,47.49 108.643,74.737 134.08,87.373 134.041,78.237 125.572,74.025 		"/>
		
			<polygon fill="#FFFFFF" stroke="#7B438B" stroke-width="0.9699" stroke-linecap="round" stroke-linejoin="round" stroke-miterlimit="10" points="
			168.127,62.357 134.043,78.237 134.084,87.373 168.127,71.473 		"/>
		
			<polygon fill="#FFFFFF" stroke="#7B438B" stroke-width="0.9699" stroke-linecap="round" stroke-linejoin="round" stroke-miterlimit="10" points="
			159.73,49.06 125.477,64.96 125.477,73.904 159.73,58.001 		"/>
		
			<polygon fill="#FFFFFF" stroke="#7B438B" stroke-width="0.9699" stroke-linecap="round" stroke-linejoin="round" stroke-miterlimit="10" points="
			117.053,60.596 151.307,44.695 151.307,35.628 117.053,51.528 		"/>
		
			<polygon fill="#F7AB1D" stroke="#7B438B" stroke-width="0.9709" stroke-linecap="round" stroke-linejoin="round" stroke-miterlimit="10" points="
			151.307,35.663 142.861,31.434 120.137,42.013 108.643,47.358 117.086,51.591 		"/>
		
			<polygon fill="#F7AB1D" stroke="#7B438B" stroke-width="0.9709" stroke-linecap="round" stroke-linejoin="round" stroke-miterlimit="10" points="
			117.053,60.561 151.273,44.635 159.729,49.096 125.498,64.876 		"/>
		
			<polygon fill="#F7AB1D" stroke="#7B438B" stroke-width="0.9709" stroke-linecap="round" stroke-linejoin="round" stroke-miterlimit="10" points="
			125.465,74.046 159.697,57.94 168.127,62.393 133.908,78.275 		"/>
	</g>
</g>
<g>
	<g>
		<defs>
			<polygon id="SVGID_147_" points="3.23,-76.483 131.756,-12.127 231.476,-58.176 231.476,-58.464 103.25,-122.684 			"/>
		</defs>
		<clipPath id="SVGID_2_">
			<use xlink:href="#SVGID_147_"  overflow="visible"/>
		</clipPath>
		
			<path clip-path="url(#SVGID_2_)" fill="none" stroke="#FAC4AD" stroke-width="0.9933" stroke-linecap="round" stroke-linejoin="round" stroke-miterlimit="10" d="
			M-28.625-118.739h274.854 M-28.625-113.849h274.854 M-28.625-108.961h274.854 M-28.625-104.072h274.854 M-28.625-99.183h274.854
			 M-28.625-94.295h274.854 M-28.625-89.406h274.854 M-28.625-84.519h274.854 M-28.625-79.626h274.854 M-28.625-74.739h274.854
			 M-28.625-69.852h274.854 M-28.625-64.962h274.854 M-28.625-60.073h274.854 M-28.625-55.186h274.854 M-28.625-50.296h274.854
			 M-28.625-45.406h274.854 M-28.625-40.519h274.854 M-28.625-35.629h274.854 M-28.625-30.742h274.854 M-28.625-25.853h274.857
			 M-28.625-20.963h274.854 M-28.625-16.075h274.854 M255.15-74.762L6.324,41.295 M253.061-79.188L4.235,36.87 M250.974-83.613
			L2.147,32.447 M248.884-88.035L0.059,28.02 M246.795-92.463L-2.031,23.593 M244.708-96.89L-4.121,19.167 M242.618-101.315
			L-6.209,14.74 M240.53-105.738L-8.295,10.314 M238.441-110.168L-10.385,5.891 M236.352-114.594L-12.474,1.463 M234.262-119.017
			L-14.564-2.963 M232.175-123.442L-16.651-7.385 M230.084-127.871L-18.741-11.813 M227.995-132.296L-20.831-16.239
			 M225.905-136.722L-22.921-20.664 M223.815-141.15L-25.01-25.092 M221.728-145.573L-27.098-29.515 M219.639-149.998
			L-29.188-33.943 M217.553-154.424L-31.277-38.369 M215.463-158.85L-33.367-42.792 M213.373-163.275L-35.454-47.22
			 M211.284-167.701L-37.542-51.644"/>
	</g>
</g>
</svg>
