<?xml version="1.0" encoding="utf-8"?>
<!-- Generator: Adobe Illustrator 16.0.4, SVG Export Plug-In . SVG Version: 6.00 Build 0)  -->
<!DOCTYPE svg PUBLIC "-//W3C//DTD SVG 1.1//EN" "http://www.w3.org/Graphics/SVG/1.1/DTD/svg11.dtd">
<svg version="1.1" id="Layer_1" xmlns="http://www.w3.org/2000/svg" xmlns:xlink="http://www.w3.org/1999/xlink" x="0px" y="0px"
	 width="235px" height="135px" viewBox="0 0 235 135" enable-background="new 0 0 235 135" xml:space="preserve">
<g>
	
		<polygon fill="#FDC364" stroke="#FDC364" stroke-width="0.9656" stroke-linecap="round" stroke-linejoin="round" stroke-miterlimit="10" points="
		3.23,68.892 131.756,133.292 231.77,87.072 103.252,22.657 	"/>
	
		<polygon fill="#FFFFFF" stroke="#7B438B" stroke-width="0.9656" stroke-linecap="round" stroke-linejoin="round" stroke-miterlimit="10" points="
		3.23,65.036 131.756,129.436 231.77,83.216 103.252,18.801 	"/>
	
		<polygon fill="#F3816A" stroke="#7B438B" stroke-width="0.9656" stroke-linecap="round" stroke-linejoin="round" stroke-miterlimit="10" points="
		131.756,129.485 3.23,65.085 103.252,18.848 231.77,83.265 	"/>
	
		<polygon fill="#FCD58B" stroke="#FCD58B" stroke-width="0.9656" stroke-linecap="round" stroke-linejoin="round" stroke-miterlimit="10" points="
		153.022,85.788 138.591,78.626 152.723,71.764 167.154,78.926 	"/>
	<polyline fill="#F7AB1D" points="138.532,74.661 152.784,81.679 152.784,65.149 138.532,58.065 138.532,60.764 	"/>
	
		<polygon fill="#FCD58B" stroke="#FCD58B" stroke-width="0.9656" stroke-linecap="round" stroke-linejoin="round" stroke-miterlimit="10" points="
		115.015,85.788 100.582,78.626 114.715,71.764 129.146,78.926 	"/>
	
		<polygon fill="#FCD58B" stroke="#FCD58B" stroke-width="0.9656" stroke-linecap="round" stroke-linejoin="round" stroke-miterlimit="10" points="
		134.019,95.233 119.587,88.073 133.719,81.209 148.15,88.372 	"/>
	<polygon fill="#F7AB1D" points="134.019,74.656 119.587,67.495 133.719,60.632 148.15,67.793 	"/>
	<polyline fill="#F7AB1D" points="119.527,74.933 119.527,67.511 133.78,74.595 133.78,91.125 119.527,84.162 119.527,81.342 	"/>
	
		<polygon fill="#FCD58B" stroke="#FCD58B" stroke-width="0.9656" stroke-linecap="round" stroke-linejoin="round" stroke-miterlimit="10" points="
		96.351,76.342 81.918,69.181 96.05,62.319 110.482,69.48 	"/>
	<g>
		<polygon fill="#F7AB1D" points="115.015,65.21 100.582,58.049 114.715,51.187 129.146,58.348 		"/>
		<polyline fill="#F7AB1D" points="100.523,65.487 100.523,58.065 114.776,65.149 114.776,81.679 100.523,74.717 100.523,71.896 		
			"/>
	</g>
	<g>
		<g>
			
				<polygon fill="#F7AB1D" stroke="#7B438B" stroke-width="0.9656" stroke-linecap="round" stroke-linejoin="round" stroke-miterlimit="10" points="
				96.351,55.765 81.918,48.604 96.05,41.741 110.482,48.902 			"/>
			
				<polyline fill="#F7AB1D" stroke="#7B438B" stroke-width="1.015" stroke-linecap="round" stroke-linejoin="round" stroke-miterlimit="10" points="
				82.029,65.215 96.281,72.233 96.281,55.704 82.029,48.62 82.029,51.318 			"/>
			
				<polygon fill="#FCD58B" stroke="#7B438B" stroke-width="1.015" stroke-linecap="round" stroke-linejoin="round" stroke-miterlimit="10" points="
				110.535,48.957 110.535,65.487 96.281,72.233 96.281,55.704 			"/>
		</g>
	</g>
	
		<polygon fill="#F7AB1D" stroke="#7B438B" stroke-width="0.9656" stroke-linecap="round" stroke-linejoin="round" stroke-miterlimit="10" points="
		153.022,65.21 138.591,58.049 152.723,51.187 167.154,58.348 	"/>
	
		<polyline fill="none" stroke="#7B438B" stroke-width="1.015" stroke-linecap="round" stroke-linejoin="round" stroke-miterlimit="10" points="
		138.701,60.764 138.701,58.065 152.954,65.149 152.954,81.679 138.701,74.661 138.701,66.162 	"/>
	
		<polygon fill="#FCD58B" stroke="#7B438B" stroke-width="1.015" stroke-linecap="round" stroke-linejoin="round" stroke-miterlimit="10" points="
		167.207,58.402 167.207,74.933 152.954,81.679 152.954,65.149 	"/>
	<g>
		
			<polygon fill="#FCD58B" stroke="#FCD58B" stroke-width="0.9656" stroke-linecap="round" stroke-linejoin="round" stroke-miterlimit="10" points="
			77.347,85.788 62.914,78.626 77.046,71.764 91.479,78.926 		"/>
		<g>
			
				<polygon fill="#F7AB1D" stroke="#7B438B" stroke-width="0.9656" stroke-linecap="round" stroke-linejoin="round" stroke-miterlimit="10" points="
				77.347,65.21 62.914,58.049 77.046,51.187 91.479,58.348 			"/>
			
				<polygon fill="#F7AB1D" stroke="#7B438B" stroke-width="1.015" stroke-linecap="round" stroke-linejoin="round" stroke-miterlimit="10" points="
				77.277,81.679 77.277,65.149 63.025,58.065 63.025,74.595 			"/>
			
				<polygon fill="#FCD58B" stroke="#7B438B" stroke-width="1.015" stroke-linecap="round" stroke-linejoin="round" stroke-miterlimit="10" points="
				91.531,58.402 91.531,74.933 77.277,81.679 77.277,65.149 			"/>
		</g>
	</g>
	<g>
		
			<polygon fill="none" stroke="#7B438B" stroke-width="0.9656" stroke-linecap="round" stroke-linejoin="round" stroke-miterlimit="10" points="
			115.015,65.21 100.582,58.049 114.715,51.187 129.146,58.348 		"/>
		
			<polyline fill="none" stroke="#7B438B" stroke-width="1.015" stroke-linecap="round" stroke-linejoin="round" stroke-miterlimit="10" points="
			100.693,65.487 100.693,58.065 114.946,65.149 114.946,81.679 100.693,74.717 100.693,71.896 		"/>
		
			<polygon fill="#FCD58B" stroke="#7B438B" stroke-width="1.015" stroke-linecap="round" stroke-linejoin="round" stroke-miterlimit="10" points="
			129.199,58.402 129.199,74.933 114.946,81.679 114.946,65.149 		"/>
	</g>
	<g>
		
			<polygon fill="none" stroke="#7B438B" stroke-width="0.9656" stroke-linecap="round" stroke-linejoin="round" stroke-miterlimit="10" points="
			134.019,74.656 119.587,67.495 133.719,60.632 148.15,67.793 		"/>
		
			<polyline fill="none" stroke="#7B438B" stroke-width="1.015" stroke-linecap="round" stroke-linejoin="round" stroke-miterlimit="10" points="
			119.697,74.933 119.697,67.511 133.95,74.595 133.95,91.125 119.697,84.162 119.697,81.342 		"/>
		
			<polygon fill="#FCD58B" stroke="#7B438B" stroke-width="1.015" stroke-linecap="round" stroke-linejoin="round" stroke-miterlimit="10" points="
			148.203,67.848 148.203,84.378 133.95,91.125 133.95,74.595 		"/>
	</g>
</g>
</svg>
