<?xml version="1.0" encoding="utf-8"?>
<!-- Generator: Adobe Illustrator 16.0.4, SVG Export Plug-In . SVG Version: 6.00 Build 0)  -->
<!DOCTYPE svg PUBLIC "-//W3C//DTD SVG 1.1//EN" "http://www.w3.org/Graphics/SVG/1.1/DTD/svg11.dtd">
<svg version="1.1" id="Layer_1" xmlns="http://www.w3.org/2000/svg" xmlns:xlink="http://www.w3.org/1999/xlink" x="0px" y="0px"
	 width="235px" height="135px" viewBox="0 0 235 135" enable-background="new 0 0 235 135" xml:space="preserve">
<g>
	
		<polygon fill="#F27659" stroke="#F27659" stroke-width="0.9664" stroke-linecap="round" stroke-linejoin="round" stroke-miterlimit="10" points="
		3.231,68.81 131.755,133.292 231.769,87.013 103.253,22.514 	"/>
	<polygon fill="#FFFFFF" points="3.231,64.947 131.755,129.43 231.769,83.151 103.253,18.653 	"/>
	<g>
		<defs>
			<polygon id="SVGID_145_" points="3.231,64.678 131.755,129.162 231.474,83.021 231.474,82.734 103.249,18.383 			"/>
		</defs>
		<clipPath id="SVGID_2_">
			<use xlink:href="#SVGID_145_"  overflow="visible"/>
		</clipPath>
		
			<path clip-path="url(#SVGID_2_)" fill="none" stroke="#F7AB1D" stroke-width="0.9943" stroke-linecap="round" stroke-linejoin="round" stroke-miterlimit="10" d="
			M-28.624,60.402h274.852 M-28.624-7.563h274.852 M-28.624-4.471h274.852 M-28.624-1.379h274.852 M-28.624,1.713h274.852
			 M-28.624,4.805h274.852 M-28.624,7.896h274.852 M-28.624,10.989h274.852 M-28.624,14.081h274.852 M-28.624,17.171h274.852
			 M-28.624,20.262h274.852 M-28.624,23.354h274.852 M-28.624,26.445h274.852 M-28.624,29.538h274.852 M-28.624,32.627h274.852
			 M-28.624,35.719h274.852 M-28.624,38.813h274.852 M-28.624,41.903h274.852 M-28.624,44.995h274.852 M-28.624,48.086h274.852
			 M-28.624,51.179h274.855 M-28.624,54.271h274.852 M-28.624,57.363h274.852 M-28.624,63.494h274.852 M-28.624,66.586h274.852
			 M-28.624,69.678h274.852 M-28.624,72.77h274.852 M-28.624,75.861h274.852 M-28.624,78.952h274.852 M-28.624,82.043h274.852
			 M-28.624,85.135h274.852 M-28.624,88.227h274.852 M-28.624,91.317h274.852 M-28.624,94.408h274.852 M-28.624,97.503h274.852
			 M-28.624,100.593h274.852 M-28.624,103.684h274.852 M-28.624,106.776h274.852 M-28.624,109.868h274.852 M-28.624,112.96h274.852
			 M-28.624,116.052h274.852 M-28.624,119.144h274.855 M-28.624,122.234h274.852 M-28.624,125.325h274.852"/>
	</g>
	
		<polygon fill="none" stroke="#7B438B" stroke-width="0.9672" stroke-linecap="round" stroke-linejoin="round" stroke-miterlimit="10" points="
		131.755,129.43 3.231,64.947 103.253,18.653 231.769,83.151 	"/>
	
		<path fill="#F27659" stroke="#F27659" stroke-width="0.9664" stroke-linecap="round" stroke-linejoin="round" stroke-miterlimit="10" d="
		M154.702,97.744c0,0.877-7.352,1.588-16.422,1.588c-9.072,0-16.428-0.711-16.428-1.588c0-0.875,7.355-1.586,16.428-1.586
		C147.351,96.158,154.702,96.87,154.702,97.744"/>
	
		<polygon fill="#F27659" stroke="#F27659" stroke-width="0.9664" stroke-linecap="round" stroke-linejoin="round" stroke-miterlimit="10" points="
		131.638,80.668 104.394,67.081 81.714,77.582 108.96,91.168 	"/>
	<polygon fill="#FFFFFF" points="107.249,87.28 128.681,77.374 128.681,56.639 107.249,66.542 	"/>
	
		<polygon fill="none" stroke="#7B438B" stroke-width="0.9672" stroke-linecap="round" stroke-linejoin="round" stroke-miterlimit="10" points="
		107.249,87.28 128.681,77.374 128.681,56.639 107.249,66.542 	"/>
	<polygon fill="#FCD58B" points="128.661,77.619 107.271,66.55 128.661,56.544 	"/>
	
		<line fill="none" stroke="#7B438B" stroke-width="0.9672" stroke-linecap="round" stroke-linejoin="round" stroke-miterlimit="10" x1="128.681" y1="56.639" x2="107.249" y2="66.542"/>
	<polygon fill="#FCD58B" points="107.378,66.395 130.081,55.892 130.081,49.364 107.378,59.872 	"/>
	
		<polygon fill="none" stroke="#7B438B" stroke-width="0.9672" stroke-linecap="round" stroke-linejoin="round" stroke-miterlimit="10" points="
		107.378,66.395 130.081,55.892 130.081,49.364 107.378,59.872 	"/>
	<polygon fill="#FCD58B" points="130.081,49.387 102.837,35.8 80.159,46.3 107.401,59.887 	"/>
	
		<polygon fill="none" stroke="#7B438B" stroke-width="0.9672" stroke-linecap="round" stroke-linejoin="round" stroke-miterlimit="10" points="
		130.081,49.387 102.837,35.8 80.159,46.3 107.401,59.887 	"/>
	<polygon fill="#FFFFFF" points="80.159,46.282 80.159,52.803 92.347,58.881 92.347,58.24 95.229,59.676 95.229,60.319 
		107.419,66.397 107.419,59.872 	"/>
	
		<polygon fill="none" stroke="#7B438B" stroke-width="0.9672" stroke-linecap="round" stroke-linejoin="round" stroke-miterlimit="10" points="
		80.159,46.282 80.159,52.803 92.347,58.881 92.347,58.24 95.229,59.676 95.229,60.319 107.419,66.397 107.419,59.872 	"/>
	<polygon fill="#FFFFFF" points="95.228,60.284 95.228,64.837 92.347,63.402 92.347,58.853 81.552,53.475 81.552,74.459 
		107.29,87.28 107.29,66.292 	"/>
	
		<polygon fill="none" stroke="#7B438B" stroke-width="0.9672" stroke-linecap="round" stroke-linejoin="round" stroke-miterlimit="10" points="
		95.228,60.284 95.228,64.837 92.347,63.402 92.347,58.853 81.552,53.475 81.552,74.459 107.29,87.28 107.29,66.292 	"/>
	<polygon fill="#FFFFFF" points="92.329,58.215 92.329,63.675 95.247,65.118 95.247,59.656 	"/>
	
		<polygon fill="none" stroke="#7B438B" stroke-width="0.9672" stroke-linecap="round" stroke-linejoin="round" stroke-miterlimit="10" points="
		92.329,58.215 92.329,63.675 95.247,65.118 95.247,59.656 	"/>
	<path fill="#F7AB1D" d="M154.792,73.826v-0.025c0-0.453-1.795-0.868-4.695-1.169V65.43c0-6.483-5.295-11.754-11.805-11.754
		c-3.252,0-6.203,1.317-8.34,3.446c-2.145,2.132-3.479,5.076-3.479,8.323v7.184c-2.91,0.305-4.711,0.717-4.711,1.172v21.364
		c0,0.925,7.396,1.674,16.518,1.674c5.125,0,9.707-0.239,12.732-0.608c0.676-0.083,1.264-0.172,1.773-0.266
		c0.014-0.003,0.023-0.005,0.037-0.008c0.232-0.042,0.447-0.087,0.643-0.133c0.02-0.004,0.037-0.01,0.055-0.015
		c0.188-0.045,0.354-0.091,0.5-0.139c0.016-0.004,0.031-0.009,0.045-0.015c0.146-0.048,0.273-0.098,0.377-0.148
		c0.008-0.002,0.012-0.005,0.02-0.007c0.215-0.108,0.342-0.221,0.342-0.334V73.801C154.804,73.808,154.792,73.815,154.792,73.826
		 M138.276,56.845c4.764,0,8.641,3.858,8.641,8.599v6.931c-2.518-0.158-5.467-0.251-8.637-0.251c-3.164,0-6.111,0.093-8.621,0.251
		V65.43c0-2.366,0.965-4.51,2.521-6.068C133.745,57.808,135.899,56.845,138.276,56.845"/>
	<path fill="#FCD58B" d="M150.007,72.692v0.226c0,0.088-0.705,0.158-1.572,0.158c-0.865,0-1.568-0.07-1.568-0.158v-0.467
		c-2.502-0.148-5.434-0.237-8.586-0.237c-3.141,0-6.062,0.087-8.559,0.234v0.47c-0.002,0.088-0.703,0.158-1.568,0.158
		c-0.869,0-1.57-0.07-1.574-0.158v-0.23c-2.92,0.289-4.727,0.681-4.727,1.113c0,0.877,7.355,1.588,16.428,1.588
		c9.07,0,16.422-0.711,16.422-1.588C154.702,73.369,152.907,72.979,150.007,72.692"/>
	
		<path fill="none" stroke="#7B438B" stroke-width="0.9672" stroke-linecap="round" stroke-linejoin="round" stroke-miterlimit="10" d="
		M150.007,72.692v0.226c0,0.088-0.705,0.158-1.572,0.158c-0.865,0-1.568-0.07-1.568-0.158v-0.467
		c-2.502-0.148-5.434-0.237-8.586-0.237c-3.141,0-6.062,0.087-8.559,0.234v0.47c-0.002,0.088-0.703,0.158-1.568,0.158
		c-0.869,0-1.57-0.07-1.574-0.158v-0.23c-2.92,0.289-4.727,0.681-4.727,1.113c0,0.877,7.355,1.588,16.428,1.588
		c9.07,0,16.422-0.711,16.422-1.588C154.702,73.369,152.907,72.979,150.007,72.692z"/>
	<path fill="#FCD58B" d="M154.728,73.876v21.221c0,0.403-1.367,0.773-3.639,1.061V74.937
		C153.36,74.65,154.728,74.278,154.728,73.876"/>
	<path fill="#FCD58B" d="M154.728,73.876v21.221c0,0.403-1.367,0.773-3.639,1.061V74.937
		C153.36,74.65,154.728,74.278,154.728,73.876"/>
	
		<path fill="none" stroke="#7B438B" stroke-width="0.9672" stroke-linecap="round" stroke-linejoin="round" stroke-miterlimit="10" d="
		M125.313,74.909v21.047 M138.28,75.552c-9.072,0-16.428-0.744-16.428-1.664v21.201c0,0.917,7.355,1.659,16.428,1.659
		c9.07,0,16.424-0.741,16.424-1.659V73.889C154.704,74.808,147.351,75.552,138.28,75.552z"/>
	<path fill="#FCD58B" d="M140.952,84.182c0-1.498-1.199-2.713-2.676-2.713c-1.475,0-2.676,1.215-2.676,2.713
		c0,1.099,0.65,2.046,1.578,2.471v3.268c0,0.614,0.492,1.111,1.098,1.111c0.607,0,1.102-0.497,1.102-1.111v-3.268
		C140.306,86.228,140.952,85.281,140.952,84.182"/>
	
		<path fill="none" stroke="#7B438B" stroke-width="0.9672" stroke-linecap="round" stroke-linejoin="round" stroke-miterlimit="10" d="
		M140.952,84.182c0-1.498-1.199-2.713-2.676-2.713c-1.475,0-2.676,1.215-2.676,2.713c0,1.099,0.65,2.046,1.578,2.471v3.268
		c0,0.614,0.492,1.111,1.098,1.111c0.607,0,1.102-0.497,1.102-1.111v-3.268C140.306,86.228,140.952,85.281,140.952,84.182z"/>
	<path fill="#FCD58B" d="M138.347,53.763c-0.217,0-0.428,0.023-0.641,0.036c6.133,0.334,11.025,5.415,11.025,11.633v7.516v0.156
		c0.723-0.015,1.275-0.08,1.275-0.156v-7.516C150.007,58.997,144.776,53.763,138.347,53.763"/>
	<path fill="#FCD58B" d="M138.347,53.763c-0.217,0-0.428,0.023-0.641,0.036c6.133,0.334,11.025,5.415,11.025,11.633v7.516v0.156
		c0.723-0.015,1.275-0.08,1.275-0.156v-7.516C150.007,58.997,144.776,53.763,138.347,53.763"/>
	
		<path fill="none" stroke="#7B438B" stroke-width="0.9672" stroke-linecap="round" stroke-linejoin="round" stroke-miterlimit="10" d="
		M138.292,53.763c-6.455,0-11.713,5.227-11.713,11.649v7.506c0.006,0.088,0.707,0.158,1.574,0.158c0.865,0,1.566-0.07,1.568-0.158
		v-7.506c0-4.701,3.846-8.52,8.57-8.52c4.727,0,8.574,3.818,8.574,8.52v7.506c0,0.088,0.703,0.158,1.568,0.158
		c0.867,0,1.572-0.07,1.572-0.158v-7.506C150.007,58.989,144.751,53.763,138.292,53.763z"/>
</g>
</svg>
