<?xml version="1.0" encoding="utf-8"?>
<!-- Generator: Adobe Illustrator 16.0.4, SVG Export Plug-In . SVG Version: 6.00 Build 0)  -->
<!DOCTYPE svg PUBLIC "-//W3C//DTD SVG 1.1//EN" "http://www.w3.org/Graphics/SVG/1.1/DTD/svg11.dtd">
<svg version="1.1" id="Layer_1" xmlns="http://www.w3.org/2000/svg" xmlns:xlink="http://www.w3.org/1999/xlink" x="0px" y="0px"
	 width="235px" height="135px" viewBox="0 0 235 135" enable-background="new 0 0 235 135" xml:space="preserve">
<g>
	
		<polygon fill="#F27659" stroke="#F27659" stroke-width="0.9652" stroke-linecap="round" stroke-linejoin="round" stroke-miterlimit="10" points="
		131.755,133.292 3.23,68.851 103.251,22.583 231.77,87.042 	"/>
	
		<polygon fill="#FEE6BA" stroke="#7B438B" stroke-width="0.9652" stroke-linecap="round" stroke-linejoin="round" stroke-miterlimit="10" points="
		131.755,129.434 3.23,64.992 103.251,18.725 231.77,83.183 	"/>
	<g>
		<path fill="#F3755A" d="M142.982,105.983c0,0.342-1.567,0.619-3.505,0.619c-1.938,0-3.509-0.277-3.509-0.619
			c0-0.338,1.57-0.617,3.509-0.617C141.415,105.367,142.982,105.645,142.982,105.983z"/>
		<path fill="#F3755A" d="M124.188,57.698c0,0.342-1.569,0.619-3.508,0.619c-1.937,0-3.506-0.277-3.506-0.619
			c0-0.338,1.569-0.617,3.506-0.617C122.619,57.081,124.188,57.36,124.188,57.698z"/>
		<ellipse fill="#F3755A" cx="65.361" cy="78.134" rx="2.863" ry="0.505"/>
		<ellipse fill="#F3755A" cx="80.208" cy="47.444" rx="2.864" ry="0.504"/>
		<ellipse fill="#F3755A" cx="43.816" cy="53.3" rx="2.863" ry="0.505"/>
		<ellipse fill="#F3755A" cx="158.4" cy="72.81" rx="2.756" ry="0.484"/>
		<path fill="#F3755A" d="M202.085,79.373c0,0.341-1.573,0.62-3.521,0.62c-1.941,0-3.52-0.279-3.52-0.62
			c0-0.344,1.578-0.622,3.52-0.622C200.512,78.751,202.085,79.029,202.085,79.373z"/>
		<ellipse fill="#F3755A" cx="189.23" cy="87.054" rx="3.52" ry="0.621"/>
	</g>
	<path fill="#FDD68B" d="M101.417,39.868c0,1.394-1.137,2.521-2.533,2.521c-1.401,0-2.537-1.128-2.537-2.521
		c0-1.396,1.136-2.522,2.537-2.522C100.28,37.345,101.417,38.472,101.417,39.868"/>
	
		<path fill="#FBAD18" stroke="#7A428D" stroke-width="0.9669" stroke-linecap="round" stroke-linejoin="round" stroke-miterlimit="10" d="
		M101.417,39.868c0,1.394-1.137,2.521-2.533,2.521c-1.401,0-2.537-1.128-2.537-2.521c0-1.396,1.136-2.522,2.537-2.522
		C100.28,37.345,101.417,38.472,101.417,39.868z"/>
	
		<line fill="none" stroke="#7A428D" stroke-width="0.9669" stroke-linecap="round" stroke-linejoin="round" stroke-miterlimit="10" x1="141.405" y1="97.321" x2="187.176" y2="56.375"/>
	
		<line fill="none" stroke="#7A428D" stroke-width="0.9669" stroke-linecap="round" stroke-linejoin="round" stroke-miterlimit="10" x1="44.774" y1="6.612" x2="64.419" y2="55.377"/>
	
		<line fill="none" stroke="#7A428D" stroke-width="0.9669" stroke-linecap="round" stroke-linejoin="round" stroke-miterlimit="10" x1="68.148" y1="56.413" x2="96.545" y2="41.125"/>
	
		<line fill="none" stroke="#7A428D" stroke-width="0.9669" stroke-linecap="round" stroke-linejoin="round" stroke-miterlimit="10" x1="100.407" y1="42.092" x2="138.049" y2="96.97"/>
	
		<line fill="none" stroke="#7A428D" stroke-width="0.9669" stroke-linecap="round" stroke-linejoin="round" stroke-miterlimit="10" x1="123.255" y1="48.311" x2="195.983" y2="37.91"/>
	
		<line fill="none" stroke="#7A428D" stroke-width="0.9669" stroke-linecap="round" stroke-linejoin="round" stroke-miterlimit="10" x1="122.008" y1="20.638" x2="120.807" y2="46.06"/>
	
		<line fill="none" stroke="#7A428D" stroke-width="0.9669" stroke-linecap="round" stroke-linejoin="round" stroke-miterlimit="10" x1="82.499" y1="39.586" x2="119.773" y2="19.332"/>
	
		<line fill="none" stroke="#7A428D" stroke-width="0.9669" stroke-linecap="round" stroke-linejoin="round" stroke-miterlimit="10" x1="72.172" y1="19.782" x2="79.205" y2="38.203"/>
	<defs>
		<filter id="Adobe_OpacityMaskFilter" filterUnits="userSpaceOnUse" x="29.84" y="15.147" width="44.513" height="22.953">
			<feFlood  style="flood-color:white;flood-opacity:1" result="back"/>
			<feBlend  in="SourceGraphic" in2="back" mode="normal"/>
		</filter>
	</defs>
	<mask maskUnits="userSpaceOnUse" x="29.84" y="15.147" width="44.513" height="22.953" id="SVGID_2_">
		<g filter="url(#Adobe_OpacityMaskFilter)">
			
				<linearGradient id="SVGID_3_" gradientUnits="userSpaceOnUse" x1="-1269.8208" y1="2322.4839" x2="-1268.5282" y2="2322.4839" gradientTransform="matrix(-36.5883 -7.7771 -7.7771 36.5883 -28322.6953 -94819.6328)">
				<stop  offset="0" style="stop-color:#FFFFFF"/>
				<stop  offset="1" style="stop-color:#000000"/>
			</linearGradient>
			<polygon fill="url(#SVGID_3_)" points="83.055,53.105 12.992,38.282 21.136,0.141 91.198,14.966 			"/>
		</g>
	</mask>
	<g opacity="0.4" mask="url(#SVGID_2_)">
		
			<line fill="none" stroke="#F3755A" stroke-width="1.6424" stroke-linecap="round" stroke-linejoin="round" stroke-miterlimit="10" x1="30.661" y1="15.968" x2="73.531" y2="37.279"/>
	</g>
	<defs>
		<filter id="Adobe_OpacityMaskFilter_1_" filterUnits="userSpaceOnUse" x="83.681" y="70.703" width="46.727" height="24.092">
			<feFlood  style="flood-color:white;flood-opacity:1" result="back"/>
			<feBlend  in="SourceGraphic" in2="back" mode="normal"/>
		</filter>
	</defs>
	<mask maskUnits="userSpaceOnUse" x="83.681" y="70.703" width="46.727" height="24.092" id="SVGID_5_">
		<g filter="url(#Adobe_OpacityMaskFilter_1_)">
			
				<linearGradient id="SVGID_6_" gradientUnits="userSpaceOnUse" x1="-1269.2422" y1="2325.8774" x2="-1267.9501" y2="2325.8774" gradientTransform="matrix(-38.4052 -8.1633 -8.1633 38.4052 -29626.8711 -99598.9766)">
				<stop  offset="0" style="stop-color:#FFFFFF"/>
				<stop  offset="1" style="stop-color:#000000"/>
			</linearGradient>
			<polygon fill="url(#SVGID_6_)" points="139.014,110.248 66.604,94.926 75.076,55.25 147.485,70.571 			"/>
		</g>
	</mask>
	<g opacity="0.4" mask="url(#SVGID_5_)">
		
			<line fill="none" stroke="#F3755A" stroke-width="1.6424" stroke-linecap="round" stroke-linejoin="round" stroke-miterlimit="10" x1="84.502" y1="71.524" x2="129.586" y2="93.973"/>
	</g>
	<defs>
		<filter id="Adobe_OpacityMaskFilter_2_" filterUnits="userSpaceOnUse" x="75.725" y="61.797" width="39.6" height="20.418">
			<feFlood  style="flood-color:white;flood-opacity:1" result="back"/>
			<feBlend  in="SourceGraphic" in2="back" mode="normal"/>
		</filter>
	</defs>
	<mask maskUnits="userSpaceOnUse" x="75.725" y="61.797" width="39.6" height="20.418" id="SVGID_8_">
		<g filter="url(#Adobe_OpacityMaskFilter_2_)">
			
				<linearGradient id="SVGID_9_" gradientUnits="userSpaceOnUse" x1="-1272.7046" y1="2314.4419" x2="-1271.4119" y2="2314.4419" gradientTransform="matrix(-32.5483 -6.9184 -6.9184 32.5483 -25295.5898 -84059.7812)">
				<stop  offset="0" style="stop-color:#FFFFFF"/>
				<stop  offset="1" style="stop-color:#000000"/>
			</linearGradient>
			<polygon fill="url(#SVGID_9_)" points="124.236,96.224 59.396,82.505 66.809,47.786 131.651,61.505 			"/>
		</g>
	</mask>
	<g opacity="0.4" mask="url(#SVGID_8_)">
		
			<line fill="none" stroke="#F3755A" stroke-width="1.6424" stroke-linecap="round" stroke-linejoin="round" stroke-miterlimit="10" x1="76.546" y1="62.618" x2="114.503" y2="81.394"/>
	</g>
	<defs>
		<filter id="Adobe_OpacityMaskFilter_3_" filterUnits="userSpaceOnUse" x="148.88" y="33.793" width="35.572" height="18.342">
			<feFlood  style="flood-color:white;flood-opacity:1" result="back"/>
			<feBlend  in="SourceGraphic" in2="back" mode="normal"/>
		</filter>
	</defs>
	<mask maskUnits="userSpaceOnUse" x="148.88" y="33.793" width="35.572" height="18.342" id="SVGID_11_">
		<g filter="url(#Adobe_OpacityMaskFilter_3_)">
			
				<linearGradient id="SVGID_13_" gradientUnits="userSpaceOnUse" x1="-1275.8115" y1="2305.6343" x2="-1274.5188" y2="2305.6343" gradientTransform="matrix(-29.237 -6.2145 -6.2145 29.237 -22786.9844 -75291.3828)">
				<stop  offset="0" style="stop-color:#FFFFFF"/>
				<stop  offset="1" style="stop-color:#000000"/>
			</linearGradient>
			<polygon fill="url(#SVGID_13_)" points="193.538,65.328 132.977,52.513 139.79,20.597 200.352,33.413 			"/>
		</g>
	</mask>
	<g opacity="0.4" mask="url(#SVGID_11_)">
		
			<line fill="none" stroke="#F3755A" stroke-width="1.6424" stroke-linecap="round" stroke-linejoin="round" stroke-miterlimit="10" x1="149.701" y1="34.614" x2="183.631" y2="51.314"/>
	</g>
	<defs>
		<filter id="Adobe_OpacityMaskFilter_4_" filterUnits="userSpaceOnUse" x="144.806" y="27.038" width="33.232" height="17.138">
			<feFlood  style="flood-color:white;flood-opacity:1" result="back"/>
			<feBlend  in="SourceGraphic" in2="back" mode="normal"/>
		</filter>
	</defs>
	<mask maskUnits="userSpaceOnUse" x="144.806" y="27.038" width="33.232" height="17.138" id="SVGID_15_">
		<g filter="url(#Adobe_OpacityMaskFilter_4_)">
			
				<linearGradient id="SVGID_17_" gradientUnits="userSpaceOnUse" x1="-1277.604" y1="2299.6841" x2="-1276.3114" y2="2299.6841" gradientTransform="matrix(-27.3166 -5.8063 -5.8063 27.3166 -21368.1016 -70198.3672)">
				<stop  offset="0" style="stop-color:#FFFFFF"/>
				<stop  offset="1" style="stop-color:#000000"/>
			</linearGradient>
			<polygon fill="url(#SVGID_17_)" points="187.229,56.898 129.15,44.607 135.615,14.314 193.697,26.604 			"/>
		</g>
	</mask>
	<g opacity="0.4" mask="url(#SVGID_15_)">
		
			<line fill="none" stroke="#F3755A" stroke-width="1.6424" stroke-linecap="round" stroke-linejoin="round" stroke-miterlimit="10" x1="145.627" y1="27.859" x2="177.217" y2="43.354"/>
	</g>
	<defs>
		<filter id="Adobe_OpacityMaskFilter_5_" filterUnits="userSpaceOnUse" x="36.065" y="13.877" width="34.6" height="17.842">
			<feFlood  style="flood-color:white;flood-opacity:1" result="back"/>
			<feBlend  in="SourceGraphic" in2="back" mode="normal"/>
		</filter>
	</defs>
	<mask maskUnits="userSpaceOnUse" x="36.065" y="13.877" width="34.6" height="17.842" id="SVGID_19_">
		<g filter="url(#Adobe_OpacityMaskFilter_5_)">
			
				<linearGradient id="SVGID_21_" gradientUnits="userSpaceOnUse" x1="-1275.6426" y1="2303.3521" x2="-1274.3502" y2="2303.3521" gradientTransform="matrix(-28.4409 -6.0453 -6.0453 28.4409 -22284.2344 -73194.3516)">
				<stop  offset="0" style="stop-color:#FFFFFF"/>
				<stop  offset="1" style="stop-color:#000000"/>
			</linearGradient>
			<polygon fill="url(#SVGID_21_)" points="79.796,44.718 20.264,32.122 26.937,0.877 86.468,13.473 			"/>
		</g>
	</mask>
	<g opacity="0.4" mask="url(#SVGID_19_)">
		
			<line fill="none" stroke="#F3755A" stroke-width="1.6424" stroke-linecap="round" stroke-linejoin="round" stroke-miterlimit="10" x1="36.887" y1="14.698" x2="69.844" y2="30.897"/>
	</g>
	<defs>
		<filter id="Adobe_OpacityMaskFilter_6_" filterUnits="userSpaceOnUse" x="38.141" y="42.107" width="17.577" height="9.066">
			<feFlood  style="flood-color:white;flood-opacity:1" result="back"/>
			<feBlend  in="SourceGraphic" in2="back" mode="normal"/>
		</filter>
	</defs>
	<mask maskUnits="userSpaceOnUse" x="38.141" y="42.107" width="17.577" height="9.066" id="SVGID_23_">
		<g filter="url(#Adobe_OpacityMaskFilter_6_)">
			
				<linearGradient id="SVGID_25_" gradientUnits="userSpaceOnUse" x1="-1300.9531" y1="2220.5991" x2="-1299.6604" y2="2220.5991" gradientTransform="matrix(-14.4495 -3.0713 -3.0713 14.4495 -11921.708 -36033.5391)">
				<stop  offset="0" style="stop-color:#FFFFFF"/>
				<stop  offset="1" style="stop-color:#000000"/>
			</linearGradient>
			<polygon fill="url(#SVGID_25_)" points="65.584,60.726 24.133,51.957 28.276,32.554 69.727,41.325 			"/>
		</g>
	</mask>
	<g opacity="0.4" mask="url(#SVGID_23_)">
		
			<line fill="none" stroke="#F3755A" stroke-width="1.6424" stroke-linecap="round" stroke-linejoin="round" stroke-miterlimit="10" x1="38.962" y1="42.929" x2="54.896" y2="50.353"/>
	</g>
	<defs>
		<filter id="Adobe_OpacityMaskFilter_7_" filterUnits="userSpaceOnUse" x="97.358" y="8.015" width="17.576" height="9.069">
			<feFlood  style="flood-color:white;flood-opacity:1" result="back"/>
			<feBlend  in="SourceGraphic" in2="back" mode="normal"/>
		</filter>
	</defs>
	<mask maskUnits="userSpaceOnUse" x="97.358" y="8.015" width="17.576" height="9.069" id="SVGID_27_">
		<g filter="url(#Adobe_OpacityMaskFilter_7_)">
			
				<linearGradient id="SVGID_29_" gradientUnits="userSpaceOnUse" x1="-1301.7324" y1="2219.9087" x2="-1300.4402" y2="2219.9087" gradientTransform="matrix(-14.4495 -3.0713 -3.0713 14.4495 -11875.8799 -36060.0391)">
				<stop  offset="0" style="stop-color:#FFFFFF"/>
				<stop  offset="1" style="stop-color:#000000"/>
			</linearGradient>
			<polygon fill="url(#SVGID_29_)" points="124.799,26.635 83.347,17.864 87.489,-1.538 128.943,7.232 			"/>
		</g>
	</mask>
	<g opacity="0.4" mask="url(#SVGID_27_)">
		
			<line fill="none" stroke="#F3755A" stroke-width="1.6424" stroke-linecap="round" stroke-linejoin="round" stroke-miterlimit="10" x1="98.18" y1="8.836" x2="114.113" y2="16.263"/>
	</g>
	<defs>
		<filter id="Adobe_OpacityMaskFilter_8_" filterUnits="userSpaceOnUse" x="180.746" y="28.434" width="12.842" height="6.627">
			<feFlood  style="flood-color:white;flood-opacity:1" result="back"/>
			<feBlend  in="SourceGraphic" in2="back" mode="normal"/>
		</filter>
	</defs>
	<mask maskUnits="userSpaceOnUse" x="180.746" y="28.434" width="12.842" height="6.627" id="SVGID_31_">
		<g filter="url(#Adobe_OpacityMaskFilter_8_)">
			
				<linearGradient id="SVGID_33_" gradientUnits="userSpaceOnUse" x1="-1322.7876" y1="2157.5688" x2="-1321.4951" y2="2157.5688" gradientTransform="matrix(-10.557 -2.244 -2.244 10.557 -8929.1035 -25712.5918)">
				<stop  offset="0" style="stop-color:#FFFFFF"/>
				<stop  offset="1" style="stop-color:#000000"/>
			</linearGradient>
			<polygon fill="url(#SVGID_33_)" points="203.659,43.653 167.235,35.946 170.677,19.84 207.098,27.548 			"/>
		</g>
	</mask>
	<g opacity="0.4" mask="url(#SVGID_31_)">
		
			<line fill="none" stroke="#F3755A" stroke-width="1.6424" stroke-linecap="round" stroke-linejoin="round" stroke-miterlimit="10" x1="181.567" y1="29.255" x2="192.767" y2="34.24"/>
	</g>
	<defs>
		<filter id="Adobe_OpacityMaskFilter_9_" filterUnits="userSpaceOnUse" x="93.846" y="2.455" width="17.579" height="9.069">
			<feFlood  style="flood-color:white;flood-opacity:1" result="back"/>
			<feBlend  in="SourceGraphic" in2="back" mode="normal"/>
		</filter>
	</defs>
	<mask maskUnits="userSpaceOnUse" x="93.846" y="2.455" width="17.579" height="9.069" id="SVGID_35_">
		<g filter="url(#Adobe_OpacityMaskFilter_9_)">
			
				<linearGradient id="SVGID_37_" gradientUnits="userSpaceOnUse" x1="-1301.6626" y1="2219.8364" x2="-1300.3704" y2="2219.8364" gradientTransform="matrix(-14.4495 -3.0713 -3.0713 14.4495 -11878.5986 -36064.3594)">
				<stop  offset="0" style="stop-color:#FFFFFF"/>
				<stop  offset="1" style="stop-color:#000000"/>
			</linearGradient>
			<polygon fill="url(#SVGID_37_)" points="121.288,21.076 79.838,12.304 83.979,-7.098 125.433,1.673 			"/>
		</g>
	</mask>
	<g opacity="0.4" mask="url(#SVGID_35_)">
		
			<line fill="none" stroke="#F3755A" stroke-width="1.6424" stroke-linecap="round" stroke-linejoin="round" stroke-miterlimit="10" x1="94.667" y1="3.276" x2="110.604" y2="10.702"/>
	</g>
	<defs>
		<filter id="Adobe_OpacityMaskFilter_10_" filterUnits="userSpaceOnUse" x="46.867" y="64.5" width="13.396" height="6.911">
			<feFlood  style="flood-color:white;flood-opacity:1" result="back"/>
			<feBlend  in="SourceGraphic" in2="back" mode="normal"/>
		</filter>
	</defs>
	<mask maskUnits="userSpaceOnUse" x="46.867" y="64.5" width="13.396" height="6.911" id="SVGID_39_">
		<g filter="url(#Adobe_OpacityMaskFilter_10_)">
			
				<linearGradient id="SVGID_41_" gradientUnits="userSpaceOnUse" x1="-1317.2158" y1="2168.395" x2="-1315.9236" y2="2168.395" gradientTransform="matrix(-11.0127 -2.3408 -2.3408 11.0127 -9369.6338 -26893.752)">
				<stop  offset="0" style="stop-color:#FFFFFF"/>
				<stop  offset="1" style="stop-color:#000000"/>
			</linearGradient>
			<polygon fill="url(#SVGID_41_)" points="70.309,80.116 33.299,72.286 36.821,55.792 73.832,63.624 			"/>
		</g>
	</mask>
	<g opacity="0.4" mask="url(#SVGID_39_)">
		
			<line fill="none" stroke="#F3755A" stroke-width="1.6424" stroke-linecap="round" stroke-linejoin="round" stroke-miterlimit="10" x1="47.688" y1="65.321" x2="59.442" y2="70.589"/>
	</g>
	<defs>
		<filter id="Adobe_OpacityMaskFilter_11_" filterUnits="userSpaceOnUse" x="41.651" y="58.059" width="16.566" height="8.546">
			<feFlood  style="flood-color:white;flood-opacity:1" result="back"/>
			<feBlend  in="SourceGraphic" in2="back" mode="normal"/>
		</filter>
	</defs>
	<mask maskUnits="userSpaceOnUse" x="41.651" y="58.059" width="16.566" height="8.546" id="SVGID_43_">
		<g filter="url(#Adobe_OpacityMaskFilter_11_)">
			
				<linearGradient id="SVGID_44_" gradientUnits="userSpaceOnUse" x1="-1304.2168" y1="2210.52" x2="-1302.9242" y2="2210.52" gradientTransform="matrix(-13.6191 -2.8948 -2.8948 13.6191 -11304.5107 -33816.5391)">
				<stop  offset="0" style="stop-color:#FFFFFF"/>
				<stop  offset="1" style="stop-color:#000000"/>
			</linearGradient>
			<polygon fill="url(#SVGID_44_)" points="68.128,75.954 27.749,67.409 31.742,48.71 72.121,57.254 			"/>
		</g>
	</mask>
	<g opacity="0.4" mask="url(#SVGID_43_)">
		
			<line fill="none" stroke="#F3755A" stroke-width="1.6424" stroke-linecap="round" stroke-linejoin="round" stroke-miterlimit="10" x1="42.473" y1="58.88" x2="57.396" y2="65.784"/>
	</g>
	<defs>
		<filter id="Adobe_OpacityMaskFilter_12_" filterUnits="userSpaceOnUse" x="139.905" y="60.397" width="13.396" height="6.912">
			<feFlood  style="flood-color:white;flood-opacity:1" result="back"/>
			<feBlend  in="SourceGraphic" in2="back" mode="normal"/>
		</filter>
	</defs>
	<mask maskUnits="userSpaceOnUse" x="139.905" y="60.397" width="13.396" height="6.912" id="SVGID_45_">
		<g filter="url(#Adobe_OpacityMaskFilter_12_)">
			
				<linearGradient id="SVGID_46_" gradientUnits="userSpaceOnUse" x1="-1319.0254" y1="2167.9282" x2="-1317.7329" y2="2167.9282" gradientTransform="matrix(-11.0127 -2.3408 -2.3408 11.0127 -9297.626 -26896.9473)">
				<stop  offset="0" style="stop-color:#FFFFFF"/>
				<stop  offset="1" style="stop-color:#000000"/>
			</linearGradient>
			<polygon fill="url(#SVGID_46_)" points="163.35,76.013 126.338,68.183 129.858,51.689 166.87,59.524 			"/>
		</g>
	</mask>
	<g opacity="0.4" mask="url(#SVGID_45_)">
		
			<line fill="none" stroke="#F3755A" stroke-width="1.6424" stroke-linecap="round" stroke-linejoin="round" stroke-miterlimit="10" x1="140.727" y1="61.218" x2="152.479" y2="66.487"/>
	</g>
	<defs>
		<filter id="Adobe_OpacityMaskFilter_13_" filterUnits="userSpaceOnUse" x="134.688" y="53.956" width="16.568" height="8.546">
			<feFlood  style="flood-color:white;flood-opacity:1" result="back"/>
			<feBlend  in="SourceGraphic" in2="back" mode="normal"/>
		</filter>
	</defs>
	<mask maskUnits="userSpaceOnUse" x="134.688" y="53.956" width="16.568" height="8.546" id="SVGID_47_">
		<g filter="url(#Adobe_OpacityMaskFilter_13_)">
			
				<linearGradient id="SVGID_48_" gradientUnits="userSpaceOnUse" x1="-1305.6807" y1="2210.1431" x2="-1304.3883" y2="2210.1431" gradientTransform="matrix(-13.6191 -2.8948 -2.8948 13.6191 -11232.5107 -33819.7344)">
				<stop  offset="0" style="stop-color:#FFFFFF"/>
				<stop  offset="1" style="stop-color:#000000"/>
			</linearGradient>
			<polygon fill="url(#SVGID_48_)" points="161.166,71.851 120.786,63.306 124.779,44.61 165.158,53.152 			"/>
		</g>
	</mask>
	<g opacity="0.4" mask="url(#SVGID_47_)">
		
			<line fill="none" stroke="#F3755A" stroke-width="1.6424" stroke-linecap="round" stroke-linejoin="round" stroke-miterlimit="10" x1="135.51" y1="54.777" x2="150.436" y2="61.681"/>
	</g>
	
		<ellipse fill="#F27659" stroke="#7A428D" stroke-width="0.9669" stroke-linecap="round" stroke-linejoin="round" stroke-miterlimit="10" cx="43.817" cy="4.233" rx="2.534" ry="2.523"/>
	
		<path fill="#FFFFFF" stroke="#7A428D" stroke-width="0.9669" stroke-linecap="round" stroke-linejoin="round" stroke-miterlimit="10" d="
		M124.666,18.053c0,1.395-1.137,2.522-2.533,2.522c-1.402,0-2.534-1.127-2.534-2.522c0-1.395,1.132-2.524,2.534-2.524
		C123.529,15.529,124.666,16.659,124.666,18.053z"/>
	
		<ellipse fill="#FBAD18" stroke="#7A428D" stroke-width="0.9669" stroke-linecap="round" stroke-linejoin="round" stroke-miterlimit="10" cx="71.234" cy="17.324" rx="2.535" ry="2.522"/>
	
		<path fill="#FFFFFF" stroke="#7A428D" stroke-width="0.9669" stroke-linecap="round" stroke-linejoin="round" stroke-miterlimit="10" d="
		M82.744,40.833c0,1.394-1.136,2.521-2.535,2.521c-1.4,0-2.536-1.128-2.536-2.521c0-1.396,1.136-2.526,2.536-2.526
		C81.608,38.307,82.744,39.437,82.744,40.833z"/>
	
		<path fill="#FFFFFF" stroke="#7A428D" stroke-width="0.9669" stroke-linecap="round" stroke-linejoin="round" stroke-miterlimit="10" d="
		M67.962,57.879c0,1.395-1.137,2.522-2.533,2.522c-1.401,0-2.537-1.127-2.537-2.522c0-1.394,1.136-2.524,2.537-2.524
		C66.825,55.355,67.962,56.486,67.962,57.879z"/>
	
		<path fill="#F27659" stroke="#7A428D" stroke-width="0.9669" stroke-linecap="round" stroke-linejoin="round" stroke-miterlimit="10" d="
		M67.34,71.371c0,1.085-0.885,1.966-1.979,1.966c-1.092,0-1.978-0.881-1.978-1.966c0-1.089,0.886-1.969,1.978-1.969
		C66.455,69.402,67.34,70.282,67.34,71.371z"/>
	
		<ellipse fill="#F27659" stroke="#7A428D" stroke-width="0.9669" stroke-linecap="round" stroke-linejoin="round" stroke-miterlimit="10" cx="198.565" cy="37.543" rx="2.534" ry="2.523"/>
	
		<ellipse fill="#FBAD18" stroke="#7A428D" stroke-width="0.9669" stroke-linecap="round" stroke-linejoin="round" stroke-miterlimit="10" cx="120.681" cy="48.681" rx="2.535" ry="2.522"/>
	
		<ellipse fill="#FFFFFF" stroke="#7A428D" stroke-width="0.9669" stroke-linecap="round" stroke-linejoin="round" stroke-miterlimit="10" cx="189.229" cy="54.537" rx="2.535" ry="2.522"/>
	
		<path fill="#FBAD18" stroke="#7A428D" stroke-width="0.9669" stroke-linecap="round" stroke-linejoin="round" stroke-miterlimit="10" d="
		M160.379,67.268c0,1.085-0.886,1.967-1.976,1.967c-1.097,0-1.979-0.881-1.979-1.967c0-1.088,0.882-1.969,1.979-1.969
		C159.493,65.299,160.379,66.18,160.379,67.268z"/>
	
		<ellipse fill="#F27659" stroke="#7A428D" stroke-width="0.9669" stroke-linecap="round" stroke-linejoin="round" stroke-miterlimit="10" cx="139.476" cy="99.05" rx="2.535" ry="2.523"/>
</g>
</svg>
